<svg width="160" height="131" viewBox="0 0 160 131" fill="none" xmlns="http://www.w3.org/2000/svg">
<g clip-path="url(#clip0_162_4517)">
<path d="M51.8472 16.878C2.45362 26.8484 -12.714 89.5663 40.1509 115.595C40.7104 115.871 41.2911 116.117 41.8735 116.371C100.138 141.81 121.098 129.841 133.93 105.344C148.737 77.0756 119.777 3.1655 51.8472 16.878Z" fill="#FAEADD"/>
<path d="M52.7504 57.9682C68.1753 57.9682 80.6796 45.4639 80.6796 30.039C80.6796 14.6142 68.1753 2.10986 52.7504 2.10986C37.3256 2.10986 24.8213 14.6142 24.8213 30.039C24.8213 45.4639 37.3256 57.9682 52.7504 57.9682Z" fill="white"/>
<path d="M91.4788 72.4688C87.0629 73.5209 76.0126 74.7362 71.0226 77.1049C68.7632 78.1766 66.3636 79.6252 65.6981 81.9057C64.9297 84.5402 66.1662 87.7979 68.7893 88.7995C69.8268 89.1959 71.1433 89.2302 72.4777 89.1404C71.7583 89.3003 70.9589 89.6054 70.0683 90.1828C67.4745 91.8663 66.194 94.3247 67.3864 98.1468C67.9851 100.067 69.8807 101.566 72.0307 101.577C73.3308 101.584 74.6065 101.07 76.5216 100.701C75.0306 101.499 73.6864 102.778 73.1546 103.992C72.2346 106.094 72.7909 108.775 74.768 109.947C75.6994 110.5 77.0616 110.567 78.4204 110.316C77.2622 111.277 76.5738 112.615 77.1529 114.471C77.6521 116.07 79.378 118.295 82.7727 118.141C84.5638 118.06 101.909 116.911 109.328 114.876C129.615 110.956 135.69 95.7145 127.615 86.5842C120.537 78.5828 107.058 75.0902 104.687 73.9663C100.245 71.8587 98.0186 78.0559 91.4837 72.4639L91.4788 72.4688ZM75.9621 88.7571C76.1073 88.7408 76.1317 88.9431 75.9865 88.9659C75.4694 89.0507 74.8593 88.9838 74.1465 88.979C74.7843 88.9023 75.3993 88.8191 75.9621 88.7571Z" fill="#ED795A"/>
<path d="M70.6147 51.9513L66.209 54.7905L73.3129 65.8136L77.7185 62.9743L70.6147 51.9513Z" fill="#3E4E8C"/>
<path d="M101.21 103.905C97.2115 106.478 91.5476 104.76 88.626 100.089L71.3736 72.5176C68.4503 67.8456 69.3312 61.9192 73.3295 59.3466C77.3278 56.7741 82.9916 58.4918 85.9132 63.1622L103.166 90.7341C106.089 95.4061 105.208 101.333 101.21 103.905Z" fill="#4F64B3"/>
<path d="M23.6309 30.4078C23.794 36.3979 25.4188 42.4515 29.1528 47.7075C38.7072 61.1525 57.3511 64.3074 70.7961 54.7547C84.2411 45.2019 87.396 26.5563 77.8433 13.1113C68.2888 -0.335313 49.6449 -3.49021 36.1999 6.06257C32.2685 8.85532 29.2164 12.4262 27.1055 16.4163C27.1055 16.4163 23.4091 22.2628 23.6309 30.4062V30.4078ZM67.7293 50.435C56.6692 58.2945 41.3319 55.6992 33.4724 44.6391C25.6129 33.579 28.2083 18.2417 39.2684 10.3822C50.3284 2.52269 65.6657 5.11806 73.5253 16.1781C81.3848 27.2382 78.7894 42.5755 67.7293 50.435Z" fill="#7A92E6"/>
<path d="M80.8697 98.3147C80.8697 98.3147 85.8712 95.9673 88.0017 94.5971C90.1338 93.2268 94.1908 90.6494 92.8499 87.5597C91.3996 84.2188 86.1159 85.2041 86.1159 85.2041C86.1159 85.2041 89.956 83.2645 87.4666 80.2287C86.7065 79.3022 84.5059 79.0771 82.3868 78.9107C77.9318 78.5599 72.9531 78.1113 72.9531 78.1113L74.1733 85.8077L79.0345 95.6672L80.8714 98.3147H80.8697Z" fill="#ED795A"/>
<path d="M90.1786 113.957C90.1786 113.957 91.9469 113.112 94.0904 111.787C96.2339 110.463 98.4638 106.282 94.2976 104.672C91.5994 103.628 90.5521 104.303 90.5521 104.303C90.5521 104.303 95.1409 103.197 94.0153 98.8724C92.9175 94.6507 81.8623 96.8464 81.8623 96.8464L82.9716 104.107L87.6778 113.363L90.1786 113.957Z" fill="#ED795A"/>
<path fill-rule="evenodd" clip-rule="evenodd" d="M86.041 85.0834C86.2104 85.4197 86.075 85.8297 85.7386 85.9991C82.6267 87.5659 79.2332 88.5695 75.7707 88.9487C75.3964 88.9897 75.0597 88.7194 75.0187 88.3451C74.9777 87.9707 75.2479 87.634 75.6223 87.593C78.923 87.2316 82.1591 86.2745 85.1253 84.781C85.4617 84.6116 85.8717 84.747 86.041 85.0834Z" fill="#B34725"/>
<path fill-rule="evenodd" clip-rule="evenodd" d="M90.9325 104.603C91.0658 104.955 90.8884 105.349 90.5362 105.482C86.9616 106.836 84.921 107.538 80.7832 108.758C80.422 108.865 80.0428 108.658 79.9363 108.297C79.8298 107.936 80.0362 107.556 80.3974 107.45C84.5008 106.24 86.5091 105.549 90.0534 104.207C90.4056 104.074 90.7992 104.251 90.9325 104.603Z" fill="#B34725"/>
<path fill-rule="evenodd" clip-rule="evenodd" d="M86.6239 95.7959C86.7572 96.1481 86.5798 96.5417 86.2276 96.675C82.653 98.0282 80.6124 98.7302 76.4746 99.9506C76.1133 100.057 75.7342 99.8507 75.6276 99.4895C75.5211 99.1283 75.7276 98.7491 76.0888 98.6426C80.1922 97.4323 82.2004 96.7413 85.7447 95.3996C86.0969 95.2662 86.4905 95.4437 86.6239 95.7959Z" fill="#B34725"/>
<path d="M101.741 86.6638L109.689 87.194C107.73 86.6573 111.183 78.5155 111.183 78.5155C111.183 78.5155 102.472 71.8436 97.1687 69.2482C91.7952 66.617 86.3957 62.2239 85.5083 62.622C81.8558 64.2516 84.3077 70.8942 89.6909 74.3476C94.1997 77.2382 99.9435 85.9754 101.741 86.6654V86.6638Z" fill="#ED795A"/>
<path fill-rule="evenodd" clip-rule="evenodd" d="M96.3453 105.596C96.6961 105.459 97.0915 105.632 97.2284 105.983C97.7578 107.34 97.7221 108.557 97.3377 109.606C96.9596 110.639 96.2621 111.463 95.5389 112.093C94.814 112.724 94.0339 113.185 93.4422 113.488C93.1446 113.639 92.8906 113.753 92.709 113.83C92.6182 113.868 92.5452 113.897 92.4937 113.917C92.468 113.927 92.4476 113.935 92.433 113.94C92.4257 113.943 92.4198 113.945 92.4154 113.947L92.41 113.949L92.4075 113.949C92.4072 113.95 92.4069 113.95 92.1773 113.308L92.4069 113.95C92.0524 114.076 91.6621 113.892 91.5353 113.537C91.4085 113.183 91.5928 112.793 91.9469 112.666L91.9471 112.666L91.9472 112.666C91.9474 112.666 91.9475 112.666 91.9477 112.666L91.9483 112.665L91.9577 112.662C91.9668 112.659 91.9815 112.653 92.0014 112.645C92.0413 112.63 92.1018 112.606 92.1795 112.573C92.335 112.507 92.5583 112.408 92.8218 112.273C93.3522 112.002 94.0291 111.599 94.6434 111.064C95.2596 110.527 95.7837 109.884 96.0571 109.137C96.3241 108.408 96.3698 107.534 95.958 106.479C95.821 106.128 95.9944 105.733 96.3453 105.596Z" fill="#B34725"/>
<path d="M108.854 105.644L124.476 114.345C131.607 118.317 140.683 115.401 144.008 107.944C144.123 107.685 144.234 107.419 144.344 107.145C147.207 99.9051 143.463 91.7275 136.168 89.0114L123.16 84.1665C123.16 84.1665 114.209 89.0196 112.886 88.783C102.262 86.8777 120.839 95.2266 120.839 95.2266L108.855 105.642L108.854 105.644Z" fill="#ED795A"/>
<path fill-rule="evenodd" clip-rule="evenodd" d="M116.071 48.7513C115.23 48.7513 114.549 49.4328 114.549 50.2733C114.549 51.1139 115.23 51.7953 116.071 51.7953C116.911 51.7953 117.593 51.1139 117.593 50.2733C117.593 49.4328 116.911 48.7513 116.071 48.7513ZM113.593 50.2733C113.593 48.9048 114.702 47.7954 116.071 47.7954C117.439 47.7954 118.549 48.9048 118.549 50.2733C118.549 51.6418 117.439 52.7512 116.071 52.7512C114.702 52.7512 113.593 51.6418 113.593 50.2733Z" fill="#BD866C"/>
<path fill-rule="evenodd" clip-rule="evenodd" d="M52.8276 119.843C51.987 119.843 51.3056 120.524 51.3056 121.365C51.3056 122.205 51.987 122.887 52.8276 122.887C53.6681 122.887 54.3495 122.205 54.3495 121.365C54.3495 120.524 53.6681 119.843 52.8276 119.843ZM50.3496 121.365C50.3496 119.996 51.459 118.887 52.8276 118.887C54.1961 118.887 55.3055 119.996 55.3055 121.365C55.3055 122.733 54.1961 123.843 52.8276 123.843C51.459 123.843 50.3496 122.733 50.3496 121.365Z" fill="#BD866C"/>
<path fill-rule="evenodd" clip-rule="evenodd" d="M18.2053 59.0609C17.3647 59.0609 16.6833 59.7423 16.6833 60.5829C16.6833 61.4235 17.3647 62.1049 18.2053 62.1049C19.0458 62.1049 19.7273 61.4235 19.7273 60.5829C19.7273 59.7423 19.0458 59.0609 18.2053 59.0609ZM15.7274 60.5829C15.7274 59.2144 16.8368 58.105 18.2053 58.105C19.5738 58.105 20.6832 59.2144 20.6832 60.5829C20.6832 61.9514 19.5738 63.0608 18.2053 63.0608C16.8368 63.0608 15.7274 61.9514 15.7274 60.5829Z" fill="#BD866C"/>
<path fill-rule="evenodd" clip-rule="evenodd" d="M95.8554 79.5303C96.1419 79.2859 96.5723 79.32 96.8167 79.6066C98.0771 81.0842 98.8717 82.2821 99.5752 83.4169C99.7302 83.6669 99.8796 83.9118 100.028 84.1546C100.554 85.0169 101.064 85.853 101.753 86.8013L101.753 86.8017C102.881 88.3547 104.356 90.1459 106 91.5485C107.658 92.9641 109.395 93.9052 111.056 93.9281C111.432 93.9332 111.733 94.2427 111.728 94.6193C111.723 94.9958 111.414 95.2969 111.037 95.2917C108.9 95.2623 106.857 94.0739 105.114 92.5857C103.356 91.0848 101.808 89.1984 100.65 87.6032M95.8554 79.5303C95.5689 79.7747 95.5347 80.2051 95.7791 80.4916ZM95.7791 80.4916C96.9803 81.8997 97.7347 83.0362 98.4161 84.1354ZM98.4161 84.1354C98.5617 84.3702 98.705 84.6053 98.8495 84.8423ZM98.8495 84.8423C99.3796 85.7114 99.925 86.6058 100.65 87.6028Z" fill="#B34725"/>
<path d="M53.0203 46.1446C61.908 46.1446 69.1129 38.9397 69.1129 30.0521C69.1129 21.1644 61.908 13.9595 53.0203 13.9595C44.1326 13.9595 36.9277 21.1644 36.9277 30.0521C36.9277 38.9397 44.1326 46.1446 53.0203 46.1446Z" fill="#FFC066"/>
<path fill-rule="evenodd" clip-rule="evenodd" d="M61.584 22.0722C61.8622 22.2345 61.9562 22.5916 61.7939 22.8698L53.1758 37.6411C53.0755 37.813 52.8945 37.9219 52.6956 37.9299C52.4967 37.9379 52.3075 37.844 52.1937 37.6807L45.1155 27.526C44.9314 27.2617 44.9963 26.8982 45.2605 26.714C45.5247 26.5299 45.8882 26.5948 46.0724 26.859L52.6285 36.2647L60.7864 22.2821C60.9487 22.0039 61.3058 21.9099 61.584 22.0722Z" fill="white"/>
<path fill-rule="evenodd" clip-rule="evenodd" d="M77.059 23.8554C77.3721 23.8108 77.662 24.0285 77.7066 24.3415C79.1954 34.7976 76.2547 42.6412 70.986 47.8452C65.7331 53.0335 58.2254 55.5402 50.6663 55.4622C50.3501 55.459 50.0964 55.2 50.0996 54.8838C50.1029 54.5676 50.3619 54.3139 50.6781 54.3171C57.993 54.3926 65.1856 51.9646 70.1812 47.0304C75.161 42.1119 78.017 34.6451 76.5729 24.503C76.5283 24.1899 76.7459 23.9 77.059 23.8554Z" fill="#544C8A"/>
<path fill-rule="evenodd" clip-rule="evenodd" d="M45.5941 16.2117C45.594 16.2117 45.5939 16.2118 45.5938 16.2118L45.5938 16.2119L45.5904 16.214C45.5872 16.2161 45.5818 16.2196 45.5743 16.2244C45.5595 16.2341 45.5364 16.2493 45.5058 16.2698C45.4445 16.3109 45.3528 16.3736 45.2353 16.4575C45.0003 16.6254 44.6623 16.8779 44.2577 17.2118C43.4477 17.8802 42.3751 18.8709 41.3271 20.1576C39.2289 22.7333 37.2568 26.458 37.6255 31.1476C37.6503 31.4628 37.4148 31.7385 37.0996 31.7633C36.7843 31.7881 36.5087 31.5526 36.4839 31.2373C36.0843 26.1556 38.2287 22.148 40.4392 19.4343C41.5454 18.0762 42.6752 17.0329 43.5289 16.3285C43.9562 15.976 44.3154 15.7073 44.5697 15.5257C44.6968 15.4349 44.7978 15.3658 44.868 15.3187C44.9031 15.2952 44.9305 15.2771 44.9496 15.2647C44.9592 15.2584 44.9667 15.2536 44.9721 15.2502L44.9785 15.246L44.9805 15.2448L44.9812 15.2443C44.9815 15.2442 44.9817 15.244 45.2878 15.7279L44.9817 15.244C45.249 15.075 45.6027 15.1546 45.7717 15.4219C45.9407 15.689 45.8612 16.0425 45.5942 16.2116L45.5941 16.2117Z" fill="#544C8A"/>
</g>
<defs>
<clipPath id="clip0_162_4517">
<rect width="138.308" height="130" fill="white" transform="translate(7 0.540527)"/>
</clipPath>
</defs>
</svg>
