<svg width="67" height="77" viewBox="0 0 67 77" fill="none" xmlns="http://www.w3.org/2000/svg">
<path d="M54.573 47.2589C53.1353 44.2783 51.2912 42.2337 49.0845 40.7785C55.0048 34.3591 60.6565 23.257 56.1488 14.9671C51.9649 7.27357 43.2523 5.36948 37.3036 11.4746C37.2453 11.4007 37.1989 11.322 37.1381 11.2475C31.6721 4.69021 21.9995 3.98708 17.2644 11.6131C12.5205 19.2529 17.5535 30.6181 22.4108 38.0375C12.1434 40.1196 0.579475 44.2124 3.71941 56.7772C5.86543 65.3632 16.8618 68.6196 24.4476 69.3695C34.7166 70.3873 45.5362 69.412 52.9241 61.4879C56.2693 57.9014 56.6417 51.5481 54.573 47.2589ZM54.3067 20.3071C55.1946 27.203 50.8429 34.4798 46.1477 39.2491C43.9844 38.3711 41.5618 37.8371 38.8984 37.441C41.5557 30.1578 42.6276 21.0784 39.101 14.2493C44.9406 7.82229 53.2387 12.019 54.3067 20.3071ZM19.2517 22.4618C17.0902 12.6519 25.7514 4.7025 33.9953 12.4224C39.1074 17.2062 38.6546 27.3402 36.9247 33.4353C35.9745 36.7825 34.6152 40.6831 32.3418 43.3593C31.1082 44.815 28.394 41.0234 27.3674 39.6042C27.3482 39.5752 27.3353 39.5425 27.3136 39.5129C23.437 34.395 20.6362 28.7549 19.2517 22.4618ZM10.7372 46.1277C9.35058 51.0144 9.67243 56.1219 10.6418 61.221C10.0117 60.7267 9.41328 60.1927 8.85085 59.6119C3.30189 53.8633 5.88445 49.3345 10.7372 46.1277ZM14.3402 63.5003C14.3318 63.45 14.3478 63.4088 14.335 63.3548C12.8105 56.7665 11.9483 50.04 14.9965 43.8485C16.6368 43.1227 18.3358 42.5109 19.9512 42.0163C16.8264 49.3546 17.4496 58.355 20.7031 65.6127C18.5023 65.1495 16.3438 64.4703 14.3402 63.5003ZM24.5323 66.204C20.42 58.7292 19.6629 48.4367 24.0669 40.9465C24.1823 40.923 24.2889 40.9026 24.3987 40.8803C24.4582 40.9598 24.5201 41.0505 24.5803 41.1275C24.6244 41.1843 24.6741 41.2292 24.722 41.2817C24.7579 41.339 24.7862 41.3944 24.8303 41.4512C26.4005 43.441 27.942 45.0041 29.4512 45.8435C27.7933 52.9531 28.2481 59.905 31.202 66.5245C29.4248 66.5287 27.6532 66.4596 25.9321 66.3396C25.4683 66.3076 24.9997 66.2529 24.5323 66.204ZM41.9843 65.0003C39.6347 65.7879 37.1469 66.2008 34.6282 66.392C31.4089 60.0162 30.9316 53.3174 32.5703 46.4271C34.1053 46.0691 35.5953 44.6637 37.0258 41.8227C37.2488 41.3812 37.4607 40.9209 37.6739 40.4555C43.0344 41.1898 47.8171 42.2309 50.9768 47.0883C56.0733 54.9248 49.2549 62.5532 41.985 64.9978L41.9843 65.0003Z" fill="#CBCBCB"/>
<path d="M41.2921 47.43C40.9482 47.9576 40.8903 48.5138 41.0237 49.0208C41.1334 49.8474 41.7076 50.6101 42.7115 50.9155C44.6651 51.5095 46.4794 49.3207 45.4966 47.5046C44.6126 45.8742 42.2521 45.9596 41.2946 47.4307L41.2921 47.43Z" fill="#CBCBCB"/>
</svg>
