<svg width="132" height="120" viewBox="0 0 132 120" fill="none" xmlns="http://www.w3.org/2000/svg">
<g clip-path="url(#clip0_162_4755)">
<path d="M26.6599 59.7613C26.6599 59.7613 3.12015 53.9464 7.99758 39.7842C12.875 25.621 22.2304 32.3759 28.5044 27.4387C34.7784 22.5015 26.6599 59.7623 26.6599 59.7623V59.7613Z" fill="#FAEADD"/>
<path fill-rule="evenodd" clip-rule="evenodd" d="M51.4391 19.302C47.8481 10.5969 53.7345 0.793697 63.1455 0.0760992C63.3843 0.0583076 63.6272 0.0424927 63.874 0.0296432C79.6709 -0.771971 80.7522 14.6959 100.337 6.17272C119.922 -2.35049 134.35 25.3294 123.347 36.557C112.343 47.7845 116.711 68.3448 105.424 74.9544C94.1366 81.564 70.2788 79.86 66.9465 63.6863C64.4697 51.6651 55.7525 29.7576 51.4391 19.301V19.302Z" fill="#FAEADD"/>
<path d="M107.847 115.309C107.847 116.156 86.0979 116.843 59.2696 116.843C32.4412 116.843 10.6925 116.156 10.6925 115.309C10.6925 114.462 32.4412 113.775 59.2696 113.775C86.0979 113.775 107.847 114.462 107.847 115.309Z" fill="#EDE0D5"/>
<path d="M92.9834 15.4857H32.8664C29.6296 15.4857 27.0057 18.1024 27.0057 21.3303V108.735C27.0057 111.963 29.6296 114.579 32.8664 114.579H92.9834C96.2201 114.579 98.844 111.963 98.844 108.735V21.3303C98.844 18.1024 96.2201 15.4857 92.9834 15.4857Z" fill="#6D9C8D"/>
<path d="M114.813 31.7275C113.567 31.7275 112.553 30.7164 112.553 29.4729C112.553 28.2295 113.567 27.2183 114.813 27.2183C116.06 27.2183 117.074 28.2295 117.074 29.4729C117.074 30.7164 116.06 31.7275 114.813 31.7275ZM114.813 27.6572C113.809 27.6572 112.993 28.4716 112.993 29.4729C112.993 30.4742 113.809 31.2887 114.813 31.2887C115.817 31.2887 116.634 30.4742 116.634 29.4729C116.634 28.4716 115.817 27.6572 114.813 27.6572Z" fill="#1F1406"/>
<path d="M8.14948 19.4039C6.90261 19.4039 5.88867 18.3927 5.88867 17.1493C5.88867 15.9058 6.90261 14.8947 8.14948 14.8947C9.39634 14.8947 10.4103 15.9058 10.4103 17.1493C10.4103 18.3927 9.39634 19.4039 8.14948 19.4039ZM8.14948 15.3335C7.14545 15.3335 6.32874 16.148 6.32874 17.1493C6.32874 18.1505 7.14545 18.965 8.14948 18.965C9.15351 18.965 9.97021 18.1505 9.97021 17.1493C9.97021 16.148 9.15351 15.3335 8.14948 15.3335Z" fill="#1F1406"/>
<path d="M129.21 104.768C127.963 104.768 126.949 103.757 126.949 102.514C126.949 101.27 127.963 100.259 129.21 100.259C130.457 100.259 131.471 101.27 131.471 102.514C131.471 103.757 130.457 104.768 129.21 104.768ZM129.21 100.698C128.206 100.698 127.389 101.512 127.389 102.514C127.389 103.515 128.206 104.329 129.21 104.329C130.214 104.329 131.031 103.515 131.031 102.514C131.031 101.512 130.214 100.698 129.21 100.698Z" fill="#1F1406"/>
<path d="M91.38 15.4857H31.263C28.0262 15.4857 25.4023 18.1024 25.4023 21.3303V108.735C25.4023 111.963 28.0262 114.579 31.263 114.579H91.38C94.6167 114.579 97.2406 111.963 97.2406 108.735V21.3303C97.2406 18.1024 94.6167 15.4857 91.38 15.4857Z" fill="#7DB3A2"/>
<path d="M81.49 109.192H40.6826C35.48 109.192 31.2617 107.182 31.2617 101.993V19.9979H90.6859V100.022C90.6859 105.087 86.5687 109.192 81.491 109.192H81.49Z" fill="#EDE0D5"/>
<path d="M67.4425 13.9368H54.5051C53.3566 13.9368 52.4257 14.8653 52.4257 16.0105V17.7284C52.4257 18.8737 53.3566 19.8022 54.5051 19.8022H67.4425C68.591 19.8022 69.5219 18.8737 69.5219 17.7284V16.0105C69.5219 14.8653 68.591 13.9368 67.4425 13.9368Z" fill="#36261B"/>
<path d="M73.3639 16.8695H48.5853C47.4369 16.8695 46.5059 17.7979 46.5059 18.9432V20.6611C46.5059 21.8064 47.4369 22.7348 48.5853 22.7348H73.3639C74.5124 22.7348 75.4434 21.8064 75.4434 20.6611V18.9432C75.4434 17.7979 74.5124 16.8695 73.3639 16.8695Z" fill="#36261B"/>
<path d="M52.6219 35.356H38.506V49.4332H52.6219V35.356Z" fill="white"/>
<path d="M52.6219 59.1366H38.506V73.2138H52.6219V59.1366Z" fill="white"/>
<path d="M52.6219 82.9172H38.506V96.9944H52.6219V82.9172Z" fill="white"/>
<path d="M82.6866 39.9819H57.5918C57.4828 39.9819 57.3936 39.893 57.3936 39.7842C57.3936 39.6755 57.4828 39.5865 57.5918 39.5865H82.6866C82.7956 39.5865 82.8848 39.6755 82.8848 39.7842C82.8848 39.893 82.7956 39.9819 82.6866 39.9819Z" fill="#36261B"/>
<path d="M71.3942 45.4558H57.5925C57.4835 45.4558 57.3943 45.3668 57.3943 45.2581C57.3943 45.1494 57.4835 45.0604 57.5925 45.0604H71.3942C71.5033 45.0604 71.5925 45.1494 71.5925 45.2581C71.5925 45.3668 71.5033 45.4558 71.3942 45.4558Z" fill="#36261B"/>
<path d="M82.6866 63.1307H57.5918C57.4828 63.1307 57.3936 63.0418 57.3936 62.933C57.3936 62.8243 57.4828 62.7354 57.5918 62.7354H82.6866C82.7956 62.7354 82.8848 62.8243 82.8848 62.933C82.8848 63.0418 82.7956 63.1307 82.6866 63.1307Z" fill="#36261B"/>
<path d="M71.3942 68.6048H57.5925C57.4835 68.6048 57.3943 68.5158 57.3943 68.4071C57.3943 68.2983 57.4835 68.2094 57.5925 68.2094H71.3942C71.5033 68.2094 71.5925 68.2983 71.5925 68.4071C71.5925 68.5158 71.5033 68.6048 71.3942 68.6048Z" fill="#36261B"/>
<path d="M82.6866 86.2789H57.5918C57.4828 86.2789 57.3936 86.19 57.3936 86.0812C57.3936 85.9725 57.4828 85.8835 57.5918 85.8835H82.6866C82.7956 85.8835 82.8848 85.9725 82.8848 86.0812C82.8848 86.19 82.7956 86.2789 82.6866 86.2789Z" fill="#36261B"/>
<path d="M71.3942 91.7537H57.5925C57.4835 91.7537 57.3943 91.6647 57.3943 91.556C57.3943 91.4473 57.4835 91.3583 57.5925 91.3583H71.3942C71.5033 91.3583 71.5925 91.4473 71.5925 91.556C71.5925 91.6647 71.5033 91.7537 71.3942 91.7537Z" fill="#36261B"/>
<path d="M44.9921 44.7006C44.9287 44.7006 44.8692 44.671 44.8316 44.6196L42.5837 41.5436C42.5192 41.4556 42.5391 41.3321 42.6273 41.2678C42.7155 41.2036 42.8394 41.2233 42.9038 41.3113L44.9654 44.1323L47.3263 39.6933C47.3778 39.5964 47.4978 39.5598 47.5939 39.6112C47.691 39.6626 47.7277 39.7822 47.6762 39.8781L45.1666 44.5968C45.1349 44.6571 45.0734 44.6967 45.006 44.7016C45.0011 44.7016 44.9961 44.7016 44.9921 44.7016V44.7006Z" fill="#36261B"/>
<path d="M44.9921 69.2166C44.9287 69.2166 44.8692 69.1869 44.8316 69.1355L42.5837 66.0596C42.5192 65.9716 42.5391 65.848 42.6273 65.7838C42.7155 65.7195 42.8394 65.7393 42.9038 65.8273L44.9654 68.6482L47.3263 64.2092C47.3778 64.1123 47.4978 64.0758 47.5939 64.1272C47.691 64.1786 47.7277 64.2982 47.6762 64.394L45.1666 69.1128C45.1349 69.1731 45.0734 69.2126 45.006 69.2176C45.0011 69.2176 44.9961 69.2176 44.9921 69.2176V69.2166Z" fill="#36261B"/>
<path d="M44.9921 93.7335C44.9287 93.7335 44.8692 93.7039 44.8316 93.6525L42.5837 90.5765C42.5192 90.4885 42.5391 90.365 42.6273 90.3007C42.7155 90.2365 42.8394 90.2562 42.9038 90.3442L44.9654 93.1652L47.3263 88.7262C47.3778 88.6293 47.4978 88.5927 47.5939 88.6441C47.691 88.6955 47.7277 88.8151 47.6762 88.911L45.1666 93.6297C45.1349 93.69 45.0734 93.7296 45.006 93.7345C45.0011 93.7345 44.9961 93.7345 44.9921 93.7345V93.7335Z" fill="#36261B"/>
<path d="M66.7432 109.191H33.069C30.1848 109.191 27.8467 106.86 27.8467 103.983V101.826H66.7432V109.191Z" fill="#EDE0D5"/>
<path d="M78.7674 109.389C73.9028 109.389 71.4626 107.387 70.2733 105.706C68.9818 103.882 68.85 102.082 68.845 102.006C68.8381 101.897 68.9203 101.803 69.0294 101.796C69.1394 101.788 69.2326 101.871 69.2405 101.98C69.2415 101.998 69.3733 103.76 70.6073 105.494C72.2377 107.784 75.0585 108.994 78.7664 108.994C78.8754 108.994 78.9646 109.083 78.9646 109.192C78.9646 109.3 78.8754 109.389 78.7664 109.389H78.7674Z" fill="#36261B"/>
<path d="M66.7428 101.533H37.0471C36.9381 101.533 36.8489 101.444 36.8489 101.336C36.8489 101.227 36.9381 101.138 37.0471 101.138H66.7418C66.8509 101.138 66.9401 101.227 66.9401 101.336C66.9401 101.444 66.8509 101.533 66.7418 101.533H66.7428Z" fill="#36261B"/>
<path fill-rule="evenodd" clip-rule="evenodd" d="M18.3751 63.4511C22.4517 63.2426 29.1697 73.9769 28.4481 76.272C28.3084 76.7178 26.4302 74.6421 26.0892 74.227C23.649 71.2607 20.3921 68.6839 20.3921 68.6839L18.3751 63.4511Z" fill="#DB7E5A"/>
<path d="M18.1778 120C11.3726 120 5.8559 119.59 5.8559 119.085C5.8559 118.579 11.3726 118.169 18.1778 118.169C24.983 118.169 30.4998 118.579 30.4998 119.085C30.4998 119.59 24.983 120 18.1778 120Z" fill="#EDE0D5"/>
<path fill-rule="evenodd" clip-rule="evenodd" d="M23.012 117.314L24.7792 116.798L24.355 114.246L22.2557 114.276L23.012 117.314Z" fill="#E3633D"/>
<path fill-rule="evenodd" clip-rule="evenodd" d="M16.4812 78.0946C20.4557 82.3459 20.3645 83.9056 20.3645 83.9056C20.3645 83.9056 23.5392 95.8122 23.5253 96.344L25.4293 113.302C25.5195 114.102 25.8416 114.824 25.1488 114.913L23.7176 115.126C22.1347 110.113 17.3901 106.338 18.2871 98.4958L13.1252 86.2314C7.16446 77.1171 16.4812 78.0936 16.4812 78.0936V78.0946Z" fill="#7D6451"/>
<path fill-rule="evenodd" clip-rule="evenodd" d="M24.6781 116.391L26.3591 117.541C26.6802 117.814 27.0886 117.973 27.5207 117.994L27.9618 118.015C28.158 118.025 28.3216 118.158 28.3652 118.344C28.4256 118.6 28.2442 118.86 27.9756 118.905L23.1062 118.804C23.1062 118.804 21.9673 118.574 22.8128 116.439L24.6781 116.39V116.391Z" fill="#36261B"/>
<path fill-rule="evenodd" clip-rule="evenodd" d="M23.8719 115.102L22.0175 115.092C20.9223 115.248 21.5269 114.519 21.3059 113.899C19.6764 109.324 17.4553 105.757 18.2858 98.4958L13.124 86.2314C14.2093 85.9635 15.3312 86.5013 15.7782 87.5055C17.2214 90.7465 23.1028 112.195 23.871 115.101L23.8719 115.102Z" fill="#69513E"/>
<path fill-rule="evenodd" clip-rule="evenodd" d="M13.4491 79.6455L13.3777 99.5732L12.9416 116.677L11.2636 116.394C10.2655 110.357 6.75983 106.112 8.39324 98.8022L6.96104 85.2005L10.2933 80.3038L13.4501 79.6455H13.4491Z" fill="#E3633D"/>
<path fill-rule="evenodd" clip-rule="evenodd" d="M13.4493 79.6455L13.378 99.5732L13.8081 114.191C13.821 114.629 13.4751 114.995 13.036 115.007L10.0428 115.095C9.71469 115.105 9.43519 114.862 9.4005 114.537C9.26372 113.253 9.19632 111.271 9.02882 110.53C8.20815 106.905 7.07527 104.702 8.3925 98.8012L6.76702 84.9534L10.2925 80.3028L13.4493 79.6445V79.6455Z" fill="#7D6451"/>
<path fill-rule="evenodd" clip-rule="evenodd" d="M9.47953 75.5682L18.9678 75.9626C21.5913 80.7703 21.1225 86.7701 21.1225 86.7701L14.1359 87.0884C10.9038 87.0221 7.08194 89.5219 6.67954 84.211C6.21965 78.1401 9.47953 75.5682 9.47953 75.5682Z" fill="#7D6451"/>
<path fill-rule="evenodd" clip-rule="evenodd" d="M12.6874 116.312C12.6874 116.312 13.4794 117.683 13.7628 118.539C13.8114 118.685 13.7856 118.844 13.6954 118.963C13.6052 119.083 13.4615 119.15 13.3079 119.144C12.9798 119.129 12.6052 119.112 12.3723 119.103C12.2275 119.096 12.0878 119.042 11.9738 118.95C11.9054 118.895 11.8232 118.828 11.7359 118.758C11.3395 118.435 11.3454 118.079 11.3385 117.577C11.3315 117.059 11.2493 116.468 11.2493 116.468C11.8499 115.867 12.6864 116.314 12.6864 116.314L12.6874 116.312Z" fill="#36261B"/>
<path fill-rule="evenodd" clip-rule="evenodd" d="M11.2828 55.0624C11.2828 55.0624 11.3106 57.4831 7.98232 58.343C5.97823 58.8609 5.58871 60.7617 5.21108 63.0914C4.60748 66.8188 0.828232 65.8956 1.42887 71.1026C1.79757 74.2952 5.03268 76.3897 9.5642 72.7177C14.0957 69.0467 22.6196 71.7975 21.4718 60.9495C21.2736 59.0744 18.0107 59.621 17.8115 57.8972C17.5935 56.0074 16.3694 54.1135 16.3694 54.1135L11.2828 55.0614V55.0624Z" fill="#3D2213"/>
<path fill-rule="evenodd" clip-rule="evenodd" d="M16.4106 60.5026C20.3702 59.963 25.4439 66.7357 25.9405 71.1154C25.996 71.6086 25.9593 71.4 25.7601 71.918C23.2574 78.4337 16.8566 65.6701 16.8566 65.6701L16.4096 60.5016L16.4106 60.5026Z" fill="#FFAC66"/>
<path fill-rule="evenodd" clip-rule="evenodd" d="M15.7033 53.5747C15.7033 53.5747 18.3179 55.089 16.9234 57.9445C15.5289 60.8011 14.9778 58.6315 14.9778 58.6315C14.9778 58.6315 14.2195 54.6402 15.7033 53.5747Z" fill="#3D2213"/>
<path fill-rule="evenodd" clip-rule="evenodd" d="M17.4708 60.6291L13.424 60.1458L12.3119 60.1873L8.06979 61.6561C6.63858 62.3598 5.95766 64.0164 6.48197 65.5188L8.54158 71.4188C7.3978 75.075 5.29459 78.2518 5.43731 82.0167C11.3971 84.2594 20.1757 85.1559 22.1005 82.4032C21.8765 74.8674 20.3243 65.4833 17.4688 60.6281L17.4708 60.6291Z" fill="#FFAC66"/>
<path fill-rule="evenodd" clip-rule="evenodd" d="M15.4247 57.572C15.4247 57.572 15.1026 59.3947 14.8359 60.904C14.7646 61.3063 14.4821 61.6384 14.0956 61.7738C13.709 61.9092 13.2798 61.8262 12.9716 61.5574C12.8705 61.4694 12.7724 61.3834 12.6792 61.3024C12.257 60.9337 12.0865 60.3545 12.2401 59.8158C12.6366 58.4359 13.3571 55.9233 13.3571 55.9233L15.4237 57.571L15.4247 57.572Z" fill="#E3633D"/>
<path fill-rule="evenodd" clip-rule="evenodd" d="M14.5265 58.0029C14.5265 58.0029 13.4987 58.3548 12.9109 58.0998C12.9109 58.0998 13.7831 59.1534 14.7098 59.022L14.5255 58.0029H14.5265Z" fill="#E3633D"/>
<path fill-rule="evenodd" clip-rule="evenodd" d="M12.3495 55.3598C12.2493 54.827 12.6022 54.314 13.1364 54.2142C13.7073 54.1075 14.4269 53.974 14.9968 53.8673C15.531 53.7674 15.9642 54.1411 16.1455 54.6521C16.3596 55.255 16.5053 56.5627 16.4944 57.5245C16.4885 58.0671 16.1644 58.6266 15.6301 58.7254C15.0592 58.8322 13.2484 58.6088 12.8926 57.6223C12.622 56.8711 12.4961 56.1436 12.3495 55.3598Z" fill="#E3633D"/>
<path fill-rule="evenodd" clip-rule="evenodd" d="M11.222 56.9463C11.222 56.9463 10.8771 54.8795 11.6739 54.0779C12.7444 53.0005 14.2073 52.3867 15.8546 53.6874C15.8546 53.6874 16.1906 56.8929 11.221 56.9463H11.222Z" fill="#3D2213"/>
<path fill-rule="evenodd" clip-rule="evenodd" d="M12.1522 57.5879C12.3792 57.9714 12.8212 58.1305 13.1404 57.9427C13.4585 57.7549 13.5329 57.2923 13.3059 56.9088C13.0789 56.5253 12.6369 56.3662 12.3177 56.554C11.9986 56.7418 11.9252 57.2044 12.1522 57.5879Z" fill="#E3633D"/>
<path fill-rule="evenodd" clip-rule="evenodd" d="M15.3263 58.7492L15.0369 59.7613L14.1696 58.7037L15.3263 58.7492Z" fill="#A12A2A"/>
<path fill-rule="evenodd" clip-rule="evenodd" d="M16.0602 57.406L15.1285 57.5602C15.1285 57.5602 15.2524 58.1918 15.6915 58.0643C16.1306 57.9368 16.0602 57.406 16.0602 57.406Z" fill="white"/>
<path d="M15.6404 60.4107C15.6404 60.4107 16.9706 63.6577 14.7107 63.8C12.4509 63.9424 11.214 60.5679 11.214 60.5679L12.4569 59.7613L15.6404 60.4107Z" fill="#E3633D"/>
<path fill-rule="evenodd" clip-rule="evenodd" d="M9.82881 64.052C10.5444 67.124 11.4176 67.638 4.97517 74.7122C4.62331 75.0987 3.90671 73.5864 3.38933 73.8651C2.70148 74.2358 2.27825 74.6203 2.2059 74.4068C1.58049 72.5485 8.86939 64.055 8.86939 64.055L9.82881 64.052Z" fill="#DB7E5A"/>
<path fill-rule="evenodd" clip-rule="evenodd" d="M36.742 63.3651L39.4022 58.2263L33.8568 60.2743L36.742 63.3651Z" fill="#222030"/>
<path fill-rule="evenodd" clip-rule="evenodd" d="M36.742 63.3651L38.5409 59.8898C38.5379 59.274 38.196 58.9439 37.4655 58.9419L33.8557 60.2753L36.741 63.3661L36.742 63.3651Z" fill="white"/>
<path d="M5.1267 86.8758C5.89484 87.796 7.48365 87.7525 8.65815 86.7779L36.5103 63.6665C37.6849 62.6919 34.8918 59.3441 33.7173 60.3187L5.8651 83.4301C4.69059 84.4047 4.35856 85.9556 5.1267 86.8758Z" fill="#F57056"/>
<path fill-rule="evenodd" clip-rule="evenodd" d="M6.11461 86.3016C6.9779 87.122 7.99581 87.4561 8.38732 87.0469C8.77882 86.6376 8.39525 85.6403 7.53196 84.8189C6.66768 83.9985 5.65076 83.6645 5.25925 84.0737C4.86775 84.4829 5.25133 85.4802 6.11461 86.3016Z" fill="white"/>
<path fill-rule="evenodd" clip-rule="evenodd" d="M8.38757 87.0459L6.02072 89.001L3.10873 85.8578L5.32988 84.0125L8.38757 87.0459Z" fill="white"/>
<path d="M3.76697 88.2413C2.90294 87.4205 2.51961 86.4231 2.91076 86.0136C3.30192 85.6042 4.31944 85.9376 5.18346 86.7584C6.04749 87.5793 6.43083 88.5766 6.03968 88.9861C5.64852 89.3956 4.63099 89.0621 3.76697 88.2413Z" fill="#ED974E"/>
<path fill-rule="evenodd" clip-rule="evenodd" d="M6.04187 88.9732L3.67501 90.9283L0.763025 87.7841L2.98419 85.9397L6.04187 88.9732Z" fill="#ED974E"/>
<path d="M1.50224 90.0445C0.67288 89.2087 0.313122 88.2227 0.698708 87.8422C1.08429 87.4617 2.06921 87.8307 2.89858 88.6665C3.72794 89.5023 4.08769 90.4883 3.7021 90.8689C3.31651 91.2494 2.33161 90.8803 1.50224 90.0445Z" fill="#C98042"/>
<path d="M8.38763 85.0859C8.43223 85.0859 8.47682 85.071 8.51349 85.0404L36.4291 61.9784C36.5134 61.9092 36.5253 61.7837 36.4549 61.6997C36.3855 61.6157 36.2606 61.6038 36.1754 61.674L8.25977 84.736C8.17552 84.8051 8.16362 84.9307 8.234 85.0147C8.27364 85.0621 8.33014 85.0859 8.38664 85.0859H8.38763Z" fill="#36261B"/>
<path fill-rule="evenodd" clip-rule="evenodd" d="M24.2744 71.1529C24.2744 71.1529 28.9883 75.4872 28.4491 76.8176C27.9099 78.148 26.1348 78.8913 22.9522 73.4777C19.7686 68.0641 24.2744 71.1519 24.2744 71.1519V71.1529Z" fill="#DB7E5A"/>
<path fill-rule="evenodd" clip-rule="evenodd" d="M12.5038 78.1906C12.5038 78.1906 8.13085 75.4882 5.33185 73.2554C2.41788 70.9316 0.856828 75.6306 3.00365 76.5775C3.88775 76.9669 10.799 80.0429 10.799 80.0429L12.5038 78.1906Z" fill="#DB7E5A"/>
<path fill-rule="evenodd" clip-rule="evenodd" d="M10.1156 78.4525C9.81825 78.7639 9.79445 79.2472 10.0492 79.5892C10.7469 80.5262 12.2297 82.1907 13.3319 81.1657C14.8225 79.78 12.5736 77.7191 11.5746 77.6717C11.0136 77.645 10.4783 78.072 10.1156 78.4515V78.4525Z" fill="#DB7E5A"/>
<path fill-rule="evenodd" clip-rule="evenodd" d="M7.71586 62.1405C7.71586 62.1405 7.26786 62.0357 6.56316 63.2416C6.15976 63.9315 5.05761 66.1654 4.13485 67.2862C3.79588 67.6984 3.08919 68.8242 3.2785 69.3333C4.4986 72.6129 8.15791 72.8699 8.15791 72.8699L12.5497 66.1802L7.71487 62.1395L7.71586 62.1405Z" fill="#FFAC66"/>
<path fill-rule="evenodd" clip-rule="evenodd" d="M24.657 71.576C24.657 71.576 22.981 68.9922 21.7718 70.0232C20.5635 71.0541 22.192 73.0339 23.0563 73.1476C23.9206 73.2612 24.657 71.576 24.657 71.576Z" fill="#DB7E5A"/>
<path d="M8.33628 72.3303C8.50874 72.3303 8.71886 72.1415 9.55836 69.8997C9.98852 68.7492 10.386 67.5799 10.3899 67.568C10.4246 67.4642 10.3691 67.3525 10.266 67.3169C10.163 67.2823 10.05 67.3377 10.0143 67.4405C9.32941 69.4599 8.4899 71.665 8.24113 71.9438C8.17175 71.9685 8.11922 72.0308 8.1103 72.1079C8.09841 72.2166 8.17671 72.3144 8.28573 72.3263C8.30258 72.3283 8.31944 72.3303 8.33728 72.3303H8.33628Z" fill="#CF8A4F"/>
<path d="M21.3401 69.9778C21.355 69.9778 21.3708 69.9758 21.3867 69.9718C21.4927 69.9461 21.5592 69.8394 21.5334 69.7336L20.5908 65.8026C20.565 65.6969 20.458 65.6316 20.3519 65.6564C20.2459 65.682 20.1795 65.7888 20.2053 65.8946L21.1478 69.8255C21.1696 69.9165 21.2509 69.9778 21.3401 69.9778Z" fill="#CF8A4F"/>
<path d="M111.284 92.1502C111.284 92.1502 108.827 77.4414 99.0056 68.2085C99.0056 68.2085 93.8041 87.6845 107.064 92.5841C108.023 92.9389 111.284 92.1502 111.284 92.1502Z" fill="#4A8F79"/>
<path d="M113.763 75.3102C113.763 75.3102 114.147 62.2067 124.443 58.9824C124.443 58.9824 126.953 79.3084 114.86 92.1501L112.356 93.3955L113.762 75.3102H113.763Z" fill="#17B894"/>
<path d="M114.019 92.584C114.019 92.584 118.496 67.1014 106.793 56.0725C106.793 56.0725 100.607 74.6974 110.827 93.3955L114.019 92.584Z" fill="#57D4B7"/>
<path d="M109.542 115.096H113.115C117.702 115.096 121.421 111.388 121.421 106.813V91.2339H101.236V106.813C101.236 111.388 104.955 115.096 109.542 115.096Z" fill="#C9BEB5"/>
<path d="M101.237 108.28V92.585C105.292 104.113 113.426 111.478 116.662 114.061C115.114 114.714 113.29 115.097 111.329 115.097C105.755 115.097 101.237 112.045 101.237 108.28Z" fill="#ADA49C"/>
</g>
<defs>
<clipPath id="clip0_162_4755">
<rect width="131.471" height="120" fill="white"/>
</clipPath>
</defs>
</svg>
