<svg width="163" height="120" viewBox="0 0 163 120" fill="none" xmlns="http://www.w3.org/2000/svg">
<g clip-path="url(#clip0_162_4835)">
<path fill-rule="evenodd" clip-rule="evenodd" d="M128.925 106.856C128.925 106.856 109.24 125.192 89.7614 113.846C70.2825 102.501 63.6317 97.6769 31.8337 95.7436C-0.786254 93.7597 -14.0755 45.422 19.8023 17.0688C53.68 -11.2845 83.7443 1.55417 104.081 13.7303C131.529 30.1645 165.297 71.0957 128.925 106.856Z" fill="#FAEADD"/>
<path d="M69.9403 19.6446C69.1837 19.6446 68.5684 19.0292 68.5684 18.2726C68.5684 17.516 69.1837 16.9006 69.9403 16.9006C70.6969 16.9006 71.3123 17.516 71.3123 18.2726C71.3123 19.0292 70.6969 19.6446 69.9403 19.6446ZM69.9403 17.1665C69.3311 17.1665 68.8351 17.6625 68.8351 18.2717C68.8351 18.881 69.3311 19.377 69.9403 19.377C70.5496 19.377 71.0456 18.881 71.0456 18.2717C71.0456 17.6625 70.5496 17.1665 69.9403 17.1665Z" fill="#1F1406"/>
<path d="M132.462 89.1939C131.705 89.1939 131.09 88.5785 131.09 87.8219C131.09 87.0653 131.705 86.45 132.462 86.45C133.218 86.45 133.834 87.0653 133.834 87.8219C133.834 88.5785 133.218 89.1939 132.462 89.1939ZM132.462 86.7158C131.853 86.7158 131.357 87.2118 131.357 87.8211C131.357 88.4304 131.853 88.9263 132.462 88.9263C133.071 88.9263 133.567 88.4304 133.567 87.8211C133.567 87.2118 133.071 86.7158 132.462 86.7158Z" fill="#1F1406"/>
<path d="M8.96588 49.6364C8.20928 49.6364 7.59302 49.021 7.59302 48.2644C7.59302 47.5078 8.20841 46.8925 8.96588 46.8925C9.72334 46.8925 10.3379 47.5078 10.3379 48.2644C10.3379 49.021 9.72247 49.6364 8.96588 49.6364ZM8.96588 47.1583C8.35659 47.1583 7.86062 47.6543 7.86062 48.2636C7.86062 48.8729 8.35659 49.3688 8.96588 49.3688C9.57516 49.3688 10.0711 48.8729 10.0711 48.2636C10.0711 47.6543 9.57516 47.1583 8.96588 47.1583Z" fill="#1F1406"/>
<path d="M70.2119 118.928C103.808 118.928 131.044 116.982 131.044 114.581C131.044 112.18 103.808 110.234 70.2119 110.234C36.6153 110.234 9.37988 112.18 9.37988 114.581C9.37988 116.982 36.6153 118.928 70.2119 118.928Z" fill="#EDE0D5"/>
<path d="M116.127 53.3088C116.127 53.3088 124.008 24.6758 148.292 19.9026L125.117 54.034C125.117 54.034 135.394 38.8986 162.339 46.4175C162.339 46.4175 142.863 45.1719 127.596 63.9447C127.596 63.9447 122.07 70.8413 119.051 82.8553L116.127 53.3088Z" fill="#55CFA7"/>
<path d="M119.756 62.8265C119.727 62.8265 119.698 62.8186 119.671 62.8021C119.595 62.755 119.572 62.6556 119.619 62.5798L125.208 53.6419C125.255 53.566 125.356 53.5434 125.431 53.5904C125.506 53.6375 125.529 53.7369 125.482 53.8127L119.893 62.7507C119.862 62.7995 119.81 62.8265 119.756 62.8265Z" fill="#36261B"/>
<path d="M71.0287 100.125H67.1568C66.2306 100.125 65.4797 100.875 65.4797 101.802V113.784C65.4797 114.71 66.2306 115.461 67.1568 115.461H71.0287C71.9549 115.461 72.7058 114.71 72.7058 113.784V101.802C72.7058 100.875 71.9549 100.125 71.0287 100.125Z" fill="#D6573E"/>
<path d="M116.884 114.429H70.7052V40.8074H117.487C119.514 40.8074 121.157 42.4505 121.157 44.4771V110.156C121.157 112.516 119.243 114.429 116.884 114.429Z" fill="#D6573E"/>
<path d="M22.7297 114.428H68.2249V40.8066H22.1308C20.1182 40.8066 18.4873 42.4375 18.4873 44.4502V110.186C18.4873 112.529 20.3866 114.428 22.7297 114.428Z" fill="#D6573E"/>
<path d="M74.3545 113.236H66.6952C65.413 113.236 64.374 112.197 64.374 110.915V42.6039C64.374 41.6119 65.1786 40.8074 66.1705 40.8074H74.3536V113.237L74.3545 113.236Z" fill="#EDB07E"/>
<path d="M69.3651 40.8074H20.7275V113.237H69.3651V40.8074Z" fill="#E0D1C3"/>
<path d="M118.002 40.8074H69.3643V113.237H118.002V40.8074Z" fill="#D9CABD"/>
<path d="M69.3646 113.236H112.388L112.388 40.8066H69.3646V113.236Z" fill="white"/>
<path d="M69.3647 113.237C55.9734 107.785 42.5395 105.161 29.0227 108.07V35.4032C44.2558 31.4816 57.8492 32.817 69.3647 40.8074V113.237Z" fill="white"/>
<path d="M69.365 111.144C69.2874 111.144 69.2246 111.081 69.2246 111.004V41.7629C69.2246 41.6853 69.2874 41.6226 69.365 41.6226C69.4425 41.6226 69.5053 41.6853 69.5053 41.7629V111.004C69.5053 111.081 69.4425 111.144 69.365 111.144Z" fill="#BFAD99"/>
<path d="M115.141 112.148C115.063 112.148 115 112.085 115 112.008V43.4215C115 43.3439 115.063 43.2812 115.141 43.2812C115.218 43.2812 115.281 43.3439 115.281 43.4215V112.007C115.281 112.084 115.218 112.147 115.141 112.147V112.148Z" fill="#BFAD99"/>
<path d="M23.186 110.816C23.1084 110.816 23.0457 110.753 23.0457 110.676V42.0905C23.0457 42.013 23.1084 41.9502 23.186 41.9502C23.2636 41.9502 23.3263 42.013 23.3263 42.0905V110.676C23.3263 110.753 23.2636 110.816 23.186 110.816Z" fill="#BFAD99"/>
<path d="M67.9686 113.131C67.9581 113.131 67.9477 113.131 67.9372 113.128C53.8713 109.868 44.2029 109.094 38.5694 109.019C32.4661 108.938 29.6524 109.636 29.6245 109.643C29.5495 109.662 29.4728 109.617 29.4536 109.542C29.4344 109.467 29.4798 109.39 29.5547 109.371C29.5826 109.364 32.419 108.658 38.552 108.737C44.202 108.812 53.8975 109.586 68.0009 112.854C68.0767 112.872 68.1238 112.948 68.1063 113.022C68.0915 113.087 68.034 113.131 67.9695 113.131H67.9686Z" fill="#BFAD99"/>
<path d="M26.1267 110.816C26.0491 110.816 25.9863 110.753 25.9863 110.676V42.0905C25.9863 42.013 26.0491 41.9502 26.1267 41.9502C26.2042 41.9502 26.267 42.013 26.267 42.0905V110.676C26.267 110.753 26.2042 110.816 26.1267 110.816Z" fill="#BFAD99"/>
<path fill-rule="evenodd" clip-rule="evenodd" d="M86.2913 36.8597H83.8367C81.6097 36.8597 79.8036 38.6649 79.8036 40.892H84.0015C85.0745 40.892 85.9444 41.7619 85.9444 42.8349V69.8571L91.3321 62.5213L96.8837 69.8571V41.3208C96.8837 38.8567 94.8859 36.8588 92.4217 36.8588H86.2905L86.2913 36.8597Z" fill="#E69B5C"/>
<path d="M49.2742 67.0691C56.461 66.661 61.9962 61.2077 61.6374 54.8889C61.2786 48.5701 55.1617 43.7785 47.9748 44.1866C40.788 44.5947 35.2528 50.048 35.6116 56.3668C35.9704 62.6856 42.0874 67.4772 49.2742 67.0691Z" fill="#FCEFE3"/>
<path d="M50.1668 98.4956C57.3536 98.0875 62.8888 92.6342 62.53 86.3154C62.1712 79.9966 56.0542 75.205 48.8674 75.6131C41.6806 76.0212 36.1454 81.4745 36.5042 87.7933C36.863 94.1121 42.9799 98.9037 50.1668 98.4956Z" fill="#FCEFE3"/>
<path d="M93.114 98.3866C100.301 97.9785 105.836 92.5252 105.477 86.2064C105.118 79.8876 99.0015 75.096 91.8147 75.5041C84.6278 75.9122 79.0926 81.3655 79.4514 87.6843C79.8102 94.0031 85.9272 98.7947 93.114 98.3866Z" fill="#FCEFE3"/>
<path d="M37.5401 82.5041C38.0979 81.9628 38.6026 81.4642 39.055 81.0075C39.5074 80.5507 39.8918 80.128 40.2091 79.7392C40.5264 79.3504 40.7687 78.987 40.9378 78.6488C41.1069 78.3106 41.1915 77.9889 41.1915 77.6847C41.1915 77.2532 41.0773 76.9133 40.8489 76.664C40.6205 76.4147 40.291 76.2901 39.8596 76.2901C39.5466 76.2901 39.2616 76.379 39.0036 76.5568C38.7456 76.7346 38.5076 76.9455 38.2871 77.1905L37.4756 76.379C37.8469 75.9815 38.2296 75.6755 38.6227 75.4594C39.0158 75.2432 39.4909 75.136 40.0496 75.136C40.4383 75.136 40.7888 75.1953 41.1017 75.3138C41.4146 75.4324 41.6813 75.5988 41.901 75.815C42.1206 76.0303 42.2915 76.2901 42.4144 76.5951C42.5373 76.8993 42.5983 77.2375 42.5983 77.6097C42.5983 77.9819 42.5199 78.3262 42.3638 78.6941C42.2078 79.0619 41.996 79.4341 41.7301 79.8098C41.4643 80.1864 41.1531 80.5725 40.7983 80.97C40.4436 81.3675 40.067 81.7771 39.6695 82.1999C39.8805 82.1833 40.1089 82.1641 40.3538 82.1432C40.5987 82.1223 40.8184 82.1119 41.0128 82.1119H42.9914V83.3548H37.5392V82.505L37.5401 82.5041Z" fill="#1C7D5E"/>
<path d="M83.1156 84.0242C82.4566 84.0242 81.9066 83.9144 81.4664 83.6947C81.0271 83.475 80.6628 83.204 80.376 82.8832L81.0733 81.9444C81.3182 82.1902 81.5972 82.3994 81.9101 82.572C82.223 82.7455 82.5821 82.8318 82.9883 82.8318C83.4276 82.8318 83.785 82.7237 84.0605 82.5084C84.335 82.2931 84.4728 81.995 84.4728 81.6141C84.4728 81.4031 84.4344 81.2122 84.3586 81.0431C84.2827 80.874 84.1537 80.7302 83.9724 80.6125C83.7903 80.494 83.5479 80.4033 83.2429 80.3397C82.9386 80.2761 82.5586 80.2447 82.1019 80.2447V79.1795C82.4993 79.1795 82.8314 79.1481 83.0973 79.0845C83.364 79.0209 83.5793 78.932 83.7441 78.8178C83.9088 78.7036 84.0265 78.5667 84.0988 78.4055C84.1703 78.2451 84.2069 78.0716 84.2069 77.886C84.2069 77.5478 84.1006 77.2837 83.8896 77.0936C83.6778 76.9036 83.3867 76.8086 83.0145 76.8086C82.6928 76.8086 82.4034 76.8783 82.1463 77.0178C81.8883 77.1573 81.6364 77.3412 81.3915 77.5696L80.6436 76.6691C80.9905 76.3649 81.3601 76.12 81.7532 75.9335C82.1463 75.7478 82.5839 75.6545 83.0659 75.6545C83.4547 75.6545 83.8094 75.7007 84.1311 75.794C84.4527 75.8873 84.7273 76.0241 84.9557 76.2063C85.184 76.3876 85.3619 76.6116 85.4882 76.8783C85.6155 77.1451 85.6791 77.4467 85.6791 77.7849C85.6791 78.2416 85.5545 78.6217 85.3052 78.9259C85.0559 79.2301 84.7107 79.4672 84.2723 79.6363V79.6868C84.7534 79.8132 85.1535 80.0459 85.4708 80.3841C85.7881 80.7223 85.9459 81.1573 85.9459 81.6899C85.9459 82.0621 85.8718 82.3916 85.7236 82.6792C85.5754 82.9669 85.3732 83.2101 85.1152 83.4088C84.8572 83.6075 84.5573 83.7601 84.2148 83.8655C83.8722 83.971 83.507 84.0242 83.1182 84.0242H83.1156Z" fill="#1C7D5E"/>
<path d="M36.4248 53.1065H38.2256V47.806H36.7421V46.8934C37.1474 46.8175 37.4961 46.7269 37.7881 46.6205C38.0792 46.5151 38.352 46.3861 38.6066 46.2335H39.697V53.1065H41.2817V54.299H36.4248V53.1065Z" fill="#1C7D5E"/>
<path d="M55.0591 51.0381H42.7565C42.2212 51.0381 41.7872 51.472 41.7872 52.0074C41.7872 52.5427 42.2212 52.9766 42.7565 52.9766H55.0591C55.5944 52.9766 56.0283 52.5427 56.0283 52.0074C56.0283 51.472 55.5944 51.0381 55.0591 51.0381Z" fill="white"/>
<path d="M55.0591 57.1527H42.7565C42.2212 57.1527 41.7872 57.5867 41.7872 58.122C41.7872 58.6573 42.2212 59.0913 42.7565 59.0913H55.0591C55.5944 59.0913 56.0283 58.6573 56.0283 58.122C56.0283 57.5867 55.5944 57.1527 55.0591 57.1527Z" fill="white"/>
<path d="M55.5814 83.6956H43.2789C42.7435 83.6956 42.3096 84.1295 42.3096 84.6648C42.3096 85.2002 42.7435 85.6341 43.2789 85.6341H55.5814C56.1167 85.6341 56.5507 85.2002 56.5507 84.6648C56.5507 84.1295 56.1167 83.6956 55.5814 83.6956Z" fill="white"/>
<path d="M55.5814 89.8093H43.2789C42.7435 89.8093 42.3096 90.2433 42.3096 90.7786C42.3096 91.3139 42.7435 91.7479 43.2789 91.7479H55.5814C56.1167 91.7479 56.5507 91.3139 56.5507 90.7786C56.5507 90.2433 56.1167 89.8093 55.5814 89.8093Z" fill="white"/>
<path d="M98.9007 83.6956H86.5982C86.0629 83.6956 85.6289 84.1295 85.6289 84.6648C85.6289 85.2002 86.0629 85.6341 86.5982 85.6341H98.9007C99.4361 85.6341 99.87 85.2002 99.87 84.6648C99.87 84.1295 99.4361 83.6956 98.9007 83.6956Z" fill="white"/>
<path d="M98.9007 89.8093H86.5982C86.0629 89.8093 85.6289 90.2433 85.6289 90.7786C85.6289 91.3139 86.0629 91.7479 86.5982 91.7479H98.9007C99.4361 91.7479 99.87 91.3139 99.87 90.7786C99.87 90.2433 99.4361 89.8093 98.9007 89.8093Z" fill="white"/>
<path fill-rule="evenodd" clip-rule="evenodd" d="M6.13653 79.2316C5.06439 78.998 4.03061 79.4704 3.58781 80.7788L2.66211 87.4583L3.92863 87.0809L5.3625 82.2127L6.13653 79.2316Z" fill="#C95836"/>
<path d="M3.92819 87.081L3.38341 88.1784C3.27445 88.398 3.0975 88.5706 2.88482 88.6665L2.02275 89.0535C1.72203 89.1886 1.40126 88.9637 1.40039 88.6186L2.15612 87.2779C2.3226 86.9825 2.60153 86.7445 2.93712 86.6137L3.49498 86.395L3.92819 87.081Z" fill="#C95836"/>
<path fill-rule="evenodd" clip-rule="evenodd" d="M10.0407 71.3947C8.43685 71.7058 3.89726 78.741 3.75344 79.4671C3.59219 80.2847 2.5 85.0064 2.5 85.0064L4.88398 85.3002C4.88398 85.3002 6.34226 81.3577 6.6517 81.0474C6.96026 80.7371 11.234 76.3814 11.234 76.3814L10.0416 71.3947H10.0407Z" fill="#3B9579"/>
<path fill-rule="evenodd" clip-rule="evenodd" d="M22.7629 68.4502C23.8037 68.9627 24.9848 68.7413 25.7728 67.5123L28.4252 60.8938L27.0288 60.9583L24.3171 65.5885L22.7629 68.4502Z" fill="#C95836"/>
<path d="M27.0293 60.9583L27.8678 59.9716C28.0352 59.7746 28.2609 59.6421 28.5041 59.5977L29.4874 59.4207C29.8299 59.3588 30.1028 59.6709 30.0147 60.0257L28.8973 61.2085C28.6506 61.4691 28.3037 61.6417 27.9271 61.6914L27.2986 61.7733L27.0293 60.9592V60.9583Z" fill="#C95836"/>
<path fill-rule="evenodd" clip-rule="evenodd" d="M16.7587 75.4975C18.4837 75.5873 24.9348 69.5249 25.2678 68.8163C25.6417 68.0187 27.9656 63.4512 27.9656 63.4512L25.5938 62.543C25.5938 62.543 23.093 66.217 22.6964 66.4567C22.3007 66.6964 16.8049 70.0767 16.8049 70.0767L16.7578 75.4975H16.7587Z" fill="#3B9579"/>
<path fill-rule="evenodd" clip-rule="evenodd" d="M16.4774 67.2604C16.4774 67.2604 17.1835 66.3077 16.0721 65.4866C14.9608 64.6664 15.0375 66.8716 15.0732 66.8961C15.1089 66.9205 16.4774 67.2604 16.4774 67.2604Z" fill="#572A22"/>
<path fill-rule="evenodd" clip-rule="evenodd" d="M13.4336 67.7215C13.4336 67.7215 13.6925 68.8311 14.5423 68.7631C15.3922 68.6951 15.1333 66.2554 15.1333 66.2554L13.4336 67.7215Z" fill="#572A22"/>
<path fill-rule="evenodd" clip-rule="evenodd" d="M16.154 67.9943C16.154 67.9943 16.2072 69.2225 16.2517 70.2397C16.2639 70.5108 16.1096 70.7653 15.8498 70.9065C15.5892 71.0477 15.2632 71.053 14.9956 70.9205C14.9084 70.8769 14.823 70.835 14.742 70.7949C14.3759 70.6128 14.1597 70.2606 14.1867 69.8893C14.2573 68.9392 14.3846 67.2072 14.3846 67.2072L16.1532 67.9943H16.154Z" fill="#C95836"/>
<path fill-rule="evenodd" clip-rule="evenodd" d="M16.2687 68.7727L16.2181 69.47L15.418 68.9017L16.2687 68.7727Z" fill="#633C1D"/>
<path fill-rule="evenodd" clip-rule="evenodd" d="M13.9051 66.8333C13.8032 66.4881 13.9967 66.1246 14.3375 66.0227C14.7018 65.9128 15.1612 65.7751 15.5256 65.6653C15.8672 65.5624 16.1749 65.7795 16.3292 66.1046C16.5105 66.4881 16.6971 67.3424 16.7581 67.9787C16.7921 68.3369 16.6204 68.7292 16.2787 68.832C15.9143 68.9418 14.7184 68.9192 14.4177 68.2916C14.1884 67.8139 14.0559 67.3424 13.9051 66.8342V66.8333Z" fill="#C95836"/>
<path fill-rule="evenodd" clip-rule="evenodd" d="M13.2808 67.9595C13.2808 67.9595 12.9121 66.618 13.3749 66.0332C13.9973 65.2469 14.9073 64.7414 16.0718 65.4875C16.0718 65.4875 16.6977 65.7638 14.862 66.2563C14.6292 66.3191 15.1191 67.4104 14.8315 67.549C14.4436 67.7355 13.938 67.8828 13.2808 67.9604V67.9595Z" fill="#572A22"/>
<path fill-rule="evenodd" clip-rule="evenodd" d="M13.9326 68.3195C14.1078 68.5575 14.4068 68.6316 14.6012 68.486C14.7955 68.3404 14.8112 68.0293 14.6369 67.7913C14.4617 67.5533 14.1627 67.4792 13.9683 67.6248C13.774 67.7704 13.7583 68.0816 13.9326 68.3195Z" fill="#C95836"/>
<path d="M13.9566 117.584C19.99 117.584 24.881 116.864 24.881 115.976C24.881 115.089 19.99 114.369 13.9566 114.369C7.92315 114.369 3.0321 115.089 3.0321 115.976C3.0321 116.864 7.92315 117.584 13.9566 117.584Z" fill="#EDE0D5"/>
<path fill-rule="evenodd" clip-rule="evenodd" d="M17.934 114.096C17.934 114.096 15.6023 104.211 17.1748 100.3L14.9756 86.8892L21.2628 87.3198L19.6886 114.191L17.9349 114.096H17.934Z" fill="#E3633D"/>
<path fill-rule="evenodd" clip-rule="evenodd" d="M19.7161 113.708L20.6924 114.611C20.9556 114.835 22.3241 115.269 22.3241 115.269C22.481 115.546 22.2343 115.692 22.0173 115.729L18.0835 115.647C18.0835 115.647 17.1604 115.459 17.8142 113.71C18.5559 114.026 19.5784 114.251 19.717 113.708L19.7161 113.708Z" fill="#4A2A1A"/>
<path fill-rule="evenodd" clip-rule="evenodd" d="M21.6599 89.4162L21.4115 100.773L20.4919 112.158H15.9183C15.9183 112.158 16.1746 110.178 16.07 109.55C15.9654 108.921 15.2855 102.964 16.443 100.223L15.3691 89.0605L21.6608 89.4153L21.6599 89.4162Z" fill="#C2ADA0"/>
<path fill-rule="evenodd" clip-rule="evenodd" d="M16.4108 100.223L15.3369 89.0605L17.5178 89.1791L18.304 97.3535C18.4505 98.8771 18.3738 100.407 18.128 101.911C17.6424 104.885 18.121 109.031 18.2073 109.55C18.3119 110.178 18.0556 112.158 18.0556 112.158H15.8861C15.8861 112.158 16.1423 110.178 16.0377 109.55C15.9331 108.921 15.2532 102.964 16.4108 100.223Z" fill="#A39287"/>
<path fill-rule="evenodd" clip-rule="evenodd" d="M4.94543 113.4C4.94543 113.4 5.67675 103.368 8.4216 99.8376L10.3619 86.3976L16.419 87.9247L6.58415 113.787L4.94631 113.399L4.94543 113.4Z" fill="#E3633D"/>
<path fill-rule="evenodd" clip-rule="evenodd" d="M6.54138 113.503L6.9223 114.726C7.01905 115.037 7.95783 116.053 7.95783 116.053C7.92819 116.357 7.62485 116.359 7.41217 116.285L4.01184 114.325C4.01184 114.325 3.31539 113.727 4.93841 112.599C5.39951 113.216 6.09161 113.884 6.54051 113.503H6.54138Z" fill="#4A2A1A"/>
<path fill-rule="evenodd" clip-rule="evenodd" d="M16.762 89.016L12.4473 101.044L8.05679 111.963L3.55469 111.157C3.55469 111.157 4.41327 109.275 4.50218 108.646C4.59109 108.015 5.74603 102.098 7.72382 99.6337L10.0939 87.4775L16.762 89.0151V89.016Z" fill="#C2ADA0"/>
<path fill-rule="evenodd" clip-rule="evenodd" d="M12.2833 80.2437L20.8264 80.8948C22.2158 81.4047 21.6606 89.4161 21.6606 89.4161L16.0436 89.6767C13.4339 89.6218 10.3473 91.6693 10.0222 87.3206C9.65089 82.3496 12.2833 80.2445 12.2833 80.2445V80.2437Z" fill="#C2ADA0"/>
<path fill-rule="evenodd" clip-rule="evenodd" d="M9.94477 87.8367C9.94477 87.8367 15.614 88.4469 17.4576 85.9583L9.85847 85.3054C9.85847 85.3054 9.83058 87.2013 9.94477 87.8367Z" fill="#A39287"/>
<path fill-rule="evenodd" clip-rule="evenodd" d="M19.9231 70.3469L16.9421 69.9085L14.3698 69.7333L10.2486 71.121C9.14771 71.6657 9.48853 72.6978 9.90867 73.8562L9.58877 77.5773C8.73891 80.3997 8.74762 82.4865 8.89493 85.3917C13.5313 87.1132 20.5071 86.6826 21.9698 84.5558C21.7231 78.741 21.7693 76.6054 19.9223 70.3469H19.9231Z" fill="#3B9579"/>
<path d="M16.9417 69.9076C16.9417 69.9076 17.9693 72.452 16.2225 72.5645C14.4757 72.676 13.5195 70.0314 13.5195 70.0314L14.7956 69.4648L16.9417 69.9085V69.9076Z" fill="#C95836"/>
<path d="M9.31373 78.1673C9.30065 78.1673 9.28758 78.1639 9.27537 78.1569C9.24051 78.136 9.23005 78.0906 9.25097 78.0566L10.412 76.1477L10.2202 75.7067C10.2037 75.6692 10.2202 75.6265 10.2586 75.6099C10.2961 75.5942 10.3388 75.6108 10.3554 75.6483L10.5619 76.1233C10.5715 76.1451 10.5698 76.1704 10.5576 76.1904L9.37649 78.1316C9.36254 78.1543 9.33813 78.1665 9.31373 78.1665V78.1673Z" fill="#236E57"/>
<path d="M100.796 104.719C101.058 104.641 101.207 104.366 101.129 104.104L100.122 100.716C100.045 100.455 99.7693 100.306 99.5078 100.383C99.2463 100.461 99.0972 100.736 99.1748 100.998L100.182 104.386C100.259 104.647 100.535 104.797 100.796 104.719Z" fill="#5C3420"/>
<path d="M110.975 114.557L104.261 107.587C103.214 106.5 101.825 106.549 100.812 107.707L92.3262 117.416L94.8888 117.725L102.117 112.115L108.26 118.669L110.975 114.557Z" fill="#7D6451"/>
<path fill-rule="evenodd" clip-rule="evenodd" d="M85.9801 117.742L84.7092 117.131C84.4224 117.031 83.4924 116.143 83.4924 116.143C83.21 116.156 83.2047 116.43 83.271 116.624L85.0457 119.767C85.0457 119.767 85.5922 120.419 86.6574 119.007C86.0908 118.566 85.621 118.13 85.9801 117.743V117.742Z" fill="#4A2A1A"/>
<path d="M87.2614 119.423L87.0906 117.641L99.2249 115.991L114.202 115.249L111.704 119.828C107.038 120.216 99.0235 119.828 99.0235 119.828C92.3266 120.093 92.059 119.792 87.2614 119.423Z" fill="#7D6451"/>
<path d="M115.837 112.626C115.837 112.626 117.326 119.969 111.096 119.826C104.866 119.683 103.186 119.827 103.186 119.827L103.646 117.167L108.26 116.961L109.989 113.989L115.836 112.627L115.837 112.626Z" fill="#7D6451"/>
<path d="M107.967 99.4306L108.815 101.265L110.379 100.011L108.825 98.1511L107.967 99.4306Z" fill="#D46D4E"/>
<path d="M106.801 108.635C106.801 108.635 106.23 106.393 106.496 105.292C106.762 104.19 108.611 100.771 108.611 100.771L110.409 99.8848C110.409 99.8848 112.536 100.695 113.866 104.456C115.195 108.216 115.837 112.625 115.837 112.625L109.667 114.371C109.013 114.556 108.333 114.173 108.152 113.518L106.801 108.634V108.635Z" fill="#E69B5C"/>
<path fill-rule="evenodd" clip-rule="evenodd" d="M108.167 99.864L108.48 100.54L108.793 99.1841L108.167 99.864Z" fill="#873B24"/>
<path d="M107.896 96.1776C107.896 96.1776 106.903 97.1338 106.967 98.8283C107.031 100.523 108.948 99.7122 109.462 99.5596C109.975 99.4062 111.281 96.562 109.667 96.331C108.054 96.1 107.896 96.1776 107.896 96.1776Z" fill="#D46D4E"/>
<path fill-rule="evenodd" clip-rule="evenodd" d="M109.929 99.3339C110.905 99.2259 111.361 98.1956 111.11 97.2455C111.03 96.9404 110.925 96.6675 110.79 96.4976C110.128 95.666 109.162 95.1317 107.931 95.9249C107.931 95.9249 108.068 97.7083 109.759 99.3409L109.929 99.3348L109.929 99.3339Z" fill="#5C3420"/>
<path fill-rule="evenodd" clip-rule="evenodd" d="M109.264 98.5338C109.079 98.7865 108.762 98.8659 108.556 98.7116C108.349 98.5573 108.332 98.2278 108.517 97.9759C108.702 97.724 109.019 97.6438 109.225 97.7981C109.431 97.9524 109.449 98.2819 109.264 98.5338Z" fill="#D46D4E"/>
<path fill-rule="evenodd" clip-rule="evenodd" d="M115.686 102.106C115.635 101.876 115.706 101.638 115.844 101.446C116.96 99.8883 114.59 98.8136 113.897 98.3141C113.173 97.7929 114.006 96.5351 112.467 96.0347C110.928 95.5344 110.436 96.3433 110.363 96.3198C110.255 96.2858 110.563 97.8042 110.563 97.8042C110.563 97.8042 111.331 98.0448 111.33 99.5789C111.33 101.113 110.93 101.914 111.887 103.112C112.845 104.309 116.59 102.721 116.59 102.721C115.965 102.719 115.752 102.396 115.687 102.106H115.686Z" fill="#5C3420"/>
<path d="M111.084 97.3108C111.065 97.3108 111.047 97.3065 111.03 97.296C110.994 97.2742 110.975 97.235 110.978 97.1949C110.958 97.1095 110.789 96.7565 110.697 96.5638C110.639 96.4409 110.588 96.3355 110.561 96.2718C110.537 96.2187 110.562 96.1559 110.616 96.1324C110.669 96.1088 110.731 96.1341 110.755 96.1873C110.781 96.2474 110.831 96.352 110.888 96.4723C111.213 97.1505 111.215 97.1888 111.175 97.2577C111.155 97.2917 111.12 97.31 111.084 97.31V97.3108Z" fill="white"/>
<path fill-rule="evenodd" clip-rule="evenodd" d="M107.24 108.111C106.472 109.011 105.323 109.314 104.183 108.55L99.4922 103.758L100.687 103.252L104.842 106.211L107.24 108.111Z" fill="#D46D4E"/>
<path d="M101.171 103.671L100.445 102.691C100.301 102.495 100.09 102.357 99.8508 102.304L98.8841 102.086C98.5476 102.01 98.2365 102.292 98.2826 102.633L99.265 103.814C99.482 104.075 99.8098 104.256 100.182 104.322L100.803 104.432L101.17 103.672L101.171 103.671Z" fill="#D46D4E"/>
<path fill-rule="evenodd" clip-rule="evenodd" d="M101.985 103.81C101.985 103.81 100.985 105.752 101.112 105.841C101.239 105.931 105.431 109.76 105.431 109.76C105.431 109.76 106.922 110.794 107.854 109.932C109.396 108.506 111.131 105.952 111.131 105.952C111.131 105.952 111.432 102.271 110.547 102.263C109.786 102.256 110.447 104.047 108.619 103.995C108.322 103.986 107.198 106.801 106.922 106.722C104.951 106.162 101.986 103.81 101.986 103.81H101.985Z" fill="#E69B5C"/>
<path d="M107.241 106.75C107.222 106.75 107.202 106.747 107.184 106.738C107.113 106.706 107.08 106.623 107.112 106.551C108.495 103.41 109.679 102.868 109.728 102.846C109.8 102.814 109.884 102.848 109.914 102.919C109.945 102.991 109.912 103.073 109.842 103.105C109.825 103.113 108.695 103.656 107.371 106.665C107.347 106.718 107.296 106.749 107.241 106.749V106.75Z" fill="#CF7021"/>
<path d="M107.854 110.074C107.822 110.074 107.789 110.062 107.762 110.04C107.703 109.989 107.696 109.9 107.747 109.84L110.867 106.176C110.918 106.117 111.007 106.11 111.067 106.161C111.126 106.211 111.133 106.3 111.082 106.36L107.962 110.024C107.934 110.057 107.894 110.074 107.854 110.074Z" fill="#CF7021"/>
<path d="M105.744 115.586C105.697 115.586 105.655 115.555 105.642 115.507C105.626 115.451 105.66 115.393 105.716 115.378L108.453 114.633C108.509 114.618 108.567 114.651 108.582 114.707C108.598 114.764 108.564 114.821 108.508 114.837L105.771 115.582C105.762 115.584 105.753 115.585 105.744 115.585V115.586Z" fill="#5E2E1C"/>
</g>
<defs>
<clipPath id="clip0_162_4835">
<rect width="162.338" height="120" fill="white"/>
</clipPath>
</defs>
</svg>
