<svg width="160" height="131" viewBox="0 0 160 131" fill="none" xmlns="http://www.w3.org/2000/svg">
<g clip-path="url(#clip0_162_4545)">
<path d="M76.5028 124.417C85.6302 118.442 83.5666 104.479 73.0865 101.448C58.8857 97.3396 38.6693 94.8289 28.9426 109.251C16.4606 127.762 55.1939 138.368 76.5028 124.417Z" fill="#CCF1F9"/>
<path d="M1.29292 57.2248C5.70731 41.3553 15.5477 27.5013 29.1859 18.2641C50.6085 3.7569 85.0411 -10.0046 122.007 13.3815C183.081 52.0184 133.834 129.876 109.198 121.924C87.0662 114.779 82.0448 66.4351 21.8773 83.2371C7.8172 87.1621 -4.00974 70.5893 1.29292 57.2248Z" fill="#CCF1F9"/>
<path d="M63.1483 85.7747L30.9238 99.4726C21.4438 103.502 10.3837 99.1971 6.34701 89.717C6.29691 89.5995 6.24874 89.482 6.19864 89.3644C1.77269 78.6069 8.25458 66.4678 19.6171 63.9764L56.414 55.9106L63.1483 85.7728V85.7747Z" fill="#FA987D"/>
<path d="M87.8623 47.3901L122.048 50.1031C129.068 50.739 134.293 56.8644 133.814 63.8954C133.062 74.9516 123.453 83.2813 112.403 82.4586L94.0532 81.0925L87.8623 47.3882V47.3901Z" fill="#B85339"/>
<path d="M71.2317 42.7909C63.7209 43.4768 53.4798 44.3208 48.8419 44.3054C36.1189 44.2611 38.0227 53.2787 46.073 55.6795C49.8997 56.8202 52.7129 56.7894 54.6282 56.429L87.8372 47.0241C83.0914 43.8468 77.2685 42.2398 71.2298 42.7909H71.2317Z" fill="#B85339"/>
<path d="M50.7106 96.4052C56.8533 100.877 68.1812 105.891 74.324 110.363C75.7633 111.411 76.536 111.878 78.1912 112.573C81.328 113.891 83.8907 112.404 85.0314 111.076C86.3571 109.537 86.2704 108.045 85.5806 106.745C86.756 107.45 88.0758 107.887 89.1799 107.662C96.5674 106.159 94.4286 98.517 93.3573 97.253C95.0086 98.2607 98.7505 99.255 100.506 98.1008C104.747 95.3146 104.487 91.8521 102.747 89.3761C102.149 88.5264 102.552 89.9195 103.697 89.9079C106.591 89.8771 109.127 87.2508 109.508 84.5166C109.838 82.1485 109.839 79.4856 108.159 77.6994C104.446 73.7533 88.7021 65.0517 84.9794 62.5391C64.1426 69.8341 42.8818 76.9499 50.7086 96.4052H50.7106Z" fill="#FA987D"/>
<path d="M27.4671 83.4528C26.1915 80.6589 26.2821 77.549 26.8101 74.6741C28.8236 63.7374 37.2458 54.6311 48.1286 51.6176C54.1981 49.9374 57.3158 50.5251 63.6859 49.9528C69.5473 49.4248 75.4916 48.261 82.1354 45.8872C83.804 45.2918 86.5941 45.2667 88.1009 46.3997C91.2185 48.7447 90.7927 55.8836 84.4726 59.3076C79.8791 61.7971 79.4108 62.7855 73.6766 64.722C73.8731 64.8318 66.6513 65.8434 66.6513 65.8434C51.8224 74.0556 50.593 87.7843 53.0209 99.8753C51.5854 98.8849 37.0204 92.4839 35.5849 91.4954C32.396 89.2969 29.0413 86.9038 27.4671 83.4547V83.4528Z" fill="#FA987D"/>
<path d="M102.614 57.7912C96.8507 46.5615 83.5689 41.4246 71.6457 45.5673C64.5202 48.0414 61.6357 60.8105 61.6357 60.8105C61.6357 60.8105 47.038 69.7318 40.1939 85.2467C36.3171 94.0389 35.8623 96.0987 39.953 98.3916C42.4174 99.7731 45.0187 97.9773 45.984 96.0505C44.1285 98.7519 49.4889 105.49 55.2483 100.844C53.437 104.758 60.6897 110.554 65.3006 105.71C63.763 106.548 69.0464 115.334 74.8153 110.022C91.7176 94.4531 116.921 87.1832 103.028 58.6216C102.891 58.3403 102.753 58.0648 102.614 57.7931V57.7912Z" fill="#B85339"/>
<path fill-rule="evenodd" clip-rule="evenodd" d="M69.4505 72.4037C69.5904 72.7311 69.4384 73.1098 69.111 73.2496C62.1105 76.24 56.8444 81.4293 53.3188 85.8985C51.5586 88.1298 50.2393 90.1728 49.361 91.6562C48.922 92.3976 48.5936 92.9985 48.3757 93.4124C48.2668 93.6193 48.1856 93.7794 48.132 93.8868C48.1052 93.9405 48.0853 93.9811 48.0724 94.0077C48.0659 94.021 48.0612 94.0309 48.0581 94.0372L48.0549 94.0439L48.0543 94.0452L48.0542 94.0454C47.9017 94.367 47.5175 94.5041 47.1959 94.3517C46.8742 94.1993 46.737 93.815 46.8894 93.4933L47.4718 93.7693C46.8894 93.4933 46.8895 93.4931 46.8896 93.4928L46.8913 93.4892L46.8959 93.4796C46.8999 93.4714 46.9055 93.4596 46.913 93.4443C46.9278 93.4138 46.9496 93.3693 46.9784 93.3115C47.036 93.196 47.1216 93.0275 47.235 92.8119C47.462 92.3808 47.8009 91.761 48.2518 90.9994C49.1533 89.4768 50.5045 87.3848 52.3068 85.1001C55.9062 80.5372 61.333 75.1704 68.6046 72.0642C68.932 71.9244 69.3107 72.0764 69.4505 72.4037Z" fill="#783314"/>
<path fill-rule="evenodd" clip-rule="evenodd" d="M76.3214 81.2228C76.4612 81.5502 76.3092 81.9289 75.9818 82.0687C68.9754 85.0616 63.9342 89.9561 60.6389 94.1192C58.9927 96.1988 57.7871 98.09 56.9942 99.4587C56.5978 100.143 56.305 100.696 56.1121 101.076C56.0157 101.266 55.9443 101.413 55.8975 101.511C55.8741 101.56 55.8568 101.597 55.8456 101.621C55.84 101.633 55.836 101.642 55.8334 101.647L55.8307 101.653L55.8303 101.654L55.8302 101.654L55.8302 101.654C55.6841 101.979 55.3027 102.124 54.9781 101.978C54.6535 101.832 54.5087 101.45 54.6547 101.126L55.2425 101.39C54.6547 101.126 54.6548 101.125 54.6549 101.125L54.6553 101.124L54.6565 101.121L54.6607 101.112C54.6642 101.105 54.6693 101.093 54.6759 101.079C54.6891 101.051 54.7085 101.009 54.7341 100.956C54.7852 100.848 54.8613 100.692 54.9626 100.493C55.1654 100.093 55.4695 99.5191 55.8787 98.8126C56.697 97.4001 57.9368 95.4558 59.6282 93.3191C63.008 89.0493 68.2098 83.9869 75.4755 80.8833C75.8028 80.7434 76.1815 80.8955 76.3214 81.2228Z" fill="#783314"/>
<path fill-rule="evenodd" clip-rule="evenodd" d="M85.8222 86.4428C85.962 86.7701 85.81 87.1488 85.4827 87.2887C78.4762 90.2816 73.435 95.1761 70.1397 99.3391C68.4935 101.419 67.2879 103.31 66.495 104.679C66.0987 105.363 65.8058 105.916 65.613 106.296C65.5165 106.486 65.4451 106.633 65.3983 106.731C65.3749 106.78 65.3576 106.817 65.3464 106.841C65.3409 106.853 65.3368 106.862 65.3342 106.867L65.3316 106.873L65.3311 106.874L65.3311 106.874L65.331 106.874C65.1849 107.199 64.8035 107.344 64.479 107.198C64.1543 107.052 64.0095 106.67 64.1555 106.345L64.7433 106.61C64.1555 106.345 64.1556 106.345 64.1558 106.345L64.1561 106.344L64.1574 106.341L64.1615 106.332C64.1651 106.324 64.1701 106.313 64.1767 106.299C64.1899 106.271 64.2093 106.229 64.2349 106.176C64.2861 106.068 64.3621 105.912 64.4635 105.713C64.6662 105.313 64.9703 104.739 65.3796 104.033C66.1978 102.62 67.4377 100.676 69.129 98.5391C72.5088 94.2693 77.7107 89.2069 84.9763 86.1032C85.3036 85.9634 85.6824 86.1154 85.8222 86.4428Z" fill="#783314"/>
<path d="M93.3091 93.0872C93.3091 93.0872 90.074 85.9483 88.02 84.1486C85.966 82.349 79.3627 77.9249 77.2432 85.6188C76.3973 88.6863 79.1816 92.7674 79.1816 92.7674C79.1816 92.7674 74.2951 87.8636 71.1293 91.7192C67.9616 95.5729 75.7306 109.608 75.7306 109.608L83.567 105.93L94.5751 95.6943L93.3091 93.0872Z" fill="#FA987D"/>
<path d="M109.287 79.6534C109.287 79.6534 104.957 73.1291 103.385 70.8978C101.477 68.1867 96.1149 64.8996 94.1148 69.8978C92.9337 72.8516 94.4366 76.6725 94.4366 76.6725C94.4366 76.6725 88.3902 66.626 84.1184 72.8979C81.309 77.0213 92.9722 96.388 92.9722 96.388L101.913 90.7635L107.539 83.3876L109.287 79.6553V79.6534Z" fill="#FA987D"/>
<path fill-rule="evenodd" clip-rule="evenodd" d="M77.8211 91.7791C78.1476 91.477 78.6572 91.4969 78.9592 91.8235C81.514 94.5859 83.5681 97.8064 84.9957 101.287C85.1645 101.698 84.9678 102.169 84.5562 102.337C84.1447 102.506 83.6742 102.309 83.5054 101.898C82.1507 98.5956 80.2008 95.5384 77.7766 92.9172C77.4746 92.5907 77.4945 92.0811 77.8211 91.7791Z" fill="#B34725"/>
<path fill-rule="evenodd" clip-rule="evenodd" d="M86.0943 83.1147C86.4748 82.8842 86.97 83.0058 87.2005 83.3863C87.7276 84.2566 88.228 85.067 88.7023 85.8353C90.7079 89.0836 92.2494 91.5802 93.3871 94.6722C93.5407 95.0897 93.3268 95.5526 92.9094 95.7062C92.4919 95.8598 92.029 95.6459 91.8754 95.2285C90.7984 92.3016 89.3592 89.9691 87.3659 86.7385C86.8847 85.9586 86.3712 85.1264 85.8227 84.2208C85.5922 83.8404 85.7139 83.3451 86.0943 83.1147Z" fill="#B34725"/>
<path fill-rule="evenodd" clip-rule="evenodd" d="M95.0656 76.2508C95.4049 75.9631 95.9131 76.0048 96.2009 76.344C99.2367 79.9229 101.762 83.8893 104.243 87.7854C104.482 88.1606 104.372 88.6584 103.996 88.8973C103.621 89.1362 103.123 89.0257 102.884 88.6505C100.394 84.739 97.9252 80.867 94.9724 77.386C94.6847 77.0468 94.7264 76.5385 95.0656 76.2508Z" fill="#B34725"/>
<path d="M80.3029 53.5406C85.7289 48.8256 87.097 42.8428 83.6248 41.0605C81.9485 40.1992 79.2046 40.6944 77.6593 41.5653C71.5127 45.0298 65.8536 47.184 60.1655 48.6965C56.6568 49.6291 54.7434 50.0126 52.1615 50.6638L43.8163 68.8937C44.0572 68.701 63.9171 63.8839 64.158 63.6912C64.158 63.6912 74.2816 58.7778 80.3049 53.5425L80.3029 53.5406Z" fill="#FA987D"/>
<path fill-rule="evenodd" clip-rule="evenodd" d="M120.285 116.39C119.326 116.648 118.757 117.634 119.014 118.593C119.271 119.552 120.257 120.12 121.216 119.863C122.175 119.606 122.744 118.62 122.487 117.661C122.229 116.702 121.243 116.133 120.285 116.39ZM117.924 118.885C117.505 117.324 118.431 115.719 119.992 115.3C121.553 114.881 123.158 115.807 123.577 117.368C123.996 118.929 123.07 120.535 121.509 120.954C119.948 121.372 118.342 120.446 117.924 118.885Z" fill="#BD866C"/>
<path fill-rule="evenodd" clip-rule="evenodd" d="M86.3762 16.6577C85.4328 16.9672 84.9188 17.9828 85.2283 18.9262C85.5377 19.8696 86.5534 20.3836 87.4968 20.0741C88.4402 19.7647 88.9541 18.749 88.6447 17.8056C88.3352 16.8622 87.3196 16.3483 86.3762 16.6577ZM84.1554 19.2782C83.6516 17.7422 84.4883 16.0887 86.0242 15.5848C87.5602 15.081 89.2137 15.9178 89.7176 17.4537C90.2214 18.9897 89.3846 20.6432 87.8487 21.147C86.3127 21.6508 84.6592 20.8141 84.1554 19.2782Z" fill="#BD866C"/>
<path fill-rule="evenodd" clip-rule="evenodd" d="M12.7454 40.7775C12.5882 39.7982 11.6674 39.1296 10.6864 39.2847C9.70708 39.4419 9.03846 40.3627 9.19363 41.3436C9.35076 42.323 10.2716 42.9916 11.2526 42.8365C12.2319 42.6793 12.9005 41.7585 12.7454 40.7775ZM10.5093 38.1696C12.1061 37.9166 13.605 39.0049 13.8604 40.5994L13.8605 40.6004C14.1135 42.1972 13.0251 43.696 11.4307 43.9515L11.4297 43.9516C9.83292 44.2046 8.33404 43.1162 8.07864 41.5218L8.07849 41.5208C7.82548 39.924 8.91385 38.4251 10.5083 38.1697L10.5093 38.1696Z" fill="#BD866C"/>
</g>
<defs>
<clipPath id="clip0_162_4545">
<rect width="151.378" height="130" fill="white" transform="translate(0 0.810791)"/>
</clipPath>
</defs>
</svg>
