<svg width="119" height="120" viewBox="0 0 119 120" fill="none" xmlns="http://www.w3.org/2000/svg">
<g clip-path="url(#clip0_162_4921)">
<path d="M109.117 67.3884C109.117 67.3884 127.754 51.0198 112.824 32.6666C98.6243 15.2117 81.141 27.3334 60.2418 18.9844C52.3947 15.8494 42.9245 -7.70585 18.717 2.58545C-5.49054 12.8767 2.38597 37.1283 3.63924 44.2094C7.37611 65.3113 -8.3448 74.1025 6.53202 91.3868C15.9095 102.282 63.1631 115.678 109.117 67.3893V67.3884Z" fill="#FAEADD"/>
<path d="M26.6988 33.7668C26.6786 33.409 26.8777 33.1456 27.2199 33.0768L60.1793 26.4288C60.9178 26.2802 61.8949 27.0573 61.939 27.828L64.9795 81.8956L65.3309 88.1472C65.3511 88.5051 65.152 88.7684 64.8098 88.8372L31.8504 95.4852C31.1119 95.6338 30.1348 94.8567 30.0907 94.0861L27.0502 40.0184L26.6988 33.7668Z" fill="#D9CABD"/>
<path d="M99.8303 37.0164C98.2302 37.999 96.4953 38.6945 94.6741 39.0825C94.2539 39.1725 93.7924 39.222 93.4217 39.4064C93.0511 39.589 92.7648 39.8991 92.4804 40.2275C92.0226 40.756 91.5712 41.3028 91.129 41.8423C91.6941 41.5882 92.2694 41.3551 92.8483 41.1469C93.5153 40.9065 94.3456 40.6074 95.1282 40.8331C95.7952 41.0257 96.4301 41.6533 96.2916 42.4368C96.1852 43.0433 95.6778 43.591 94.7842 44.0635C94.0227 44.4654 93.2006 44.6956 92.3978 44.9654L89.872 45.814C89.0738 46.0819 88.2123 46.2911 87.4609 46.6581C86.8031 46.9719 86.6407 47.7894 86.2774 48.4004C85.414 49.8803 84.247 51.6262 83.569 53.1401C85.737 51.0418 85.2333 50.473 88.0784 48.6729C88.6233 48.3087 89.6619 48.2187 90.0528 48.9683C90.4959 49.7573 89.6674 50.9757 89.2913 51.4629C88.1178 53.0089 85.6755 54.9906 83.4084 56.1347C83.0561 56.287 82.5726 56.3641 82.2607 56.5558C82.0772 56.6687 82.0478 56.9595 82.0129 57.2072C81.9542 57.6247 81.8616 58.0394 81.7717 58.4403C81.39 60.0716 81.0111 61.8753 80.9579 62.3992C81.9496 60.7872 83.98 57.6173 85.8296 57.0641C87.0838 56.7696 87.4948 57.7348 87.3389 58.8697C87.1013 60.4789 85.9361 61.6386 84.6599 62.7809C83.0882 64.1892 81.4927 65.5012 79.9413 66.9398C79.7982 67.56 79.6615 68.1848 79.5275 68.794C79.4771 69.0243 79.1394 68.9949 79.1293 68.7591L79.0715 67.2985C79.2055 66.849 79.2899 66.4645 79.4605 66.059C79.5037 65.9627 79.5569 65.8425 79.5541 65.7783C79.5495 65.6728 79.4504 65.5076 79.3706 65.3755C77.8641 62.8203 76.342 59.8358 75.8007 57.4861C75.5723 56.5916 75.0209 54.7365 76.0769 54.2943C77.032 53.9153 78.1247 55.2282 78.3339 55.4961C78.7367 56.0118 78.9568 56.6292 79.177 57.2274C79.6468 58.5045 80.1285 60.0688 80.2835 61.4863C80.6028 59.9404 80.823 58.4128 81.2404 56.8824C81.3303 56.6503 81.4524 56.398 81.4891 56.1567C81.5386 55.9044 81.3386 55.475 81.1808 55.1301C80.3441 53.0859 80.0101 50.7886 79.9762 48.7591C79.9716 47.6499 79.9606 45.3415 81.4313 44.7993C81.8561 44.6424 82.2313 44.681 82.5478 44.914C83.6323 45.7131 83.6681 48.6674 83.5626 51.0207C84.4846 49.561 85.4498 48.1206 86.2838 46.6031C86.4893 46.2287 86.326 45.7315 86.1682 45.2507C85.4113 42.6662 85.5544 39.811 86.3535 37.2659C86.5517 36.6311 86.882 35.5668 87.8444 35.6897C88.7472 35.8035 89.15 36.8797 89.2518 37.2072C89.7445 38.8266 89.316 40.5037 88.8188 42.0827C88.46 43.102 88.405 43.4754 88.4334 43.602C88.5022 43.6259 88.805 43.2708 88.9481 43.0754C88.9481 43.0754 90.4941 41.2524 90.4941 41.2533C91.3886 40.1386 92.5217 39.0816 93.074 37.7669C93.3997 36.9549 93.4768 36.0861 93.5593 35.1668C93.6245 34.4401 93.6915 33.6896 93.8933 32.9749C94.1456 32.0822 94.5025 31.295 94.9557 30.6354C95.5824 29.7216 96.1861 29.1812 96.8008 28.9848C98.8146 28.449 97.8834 32.0006 97.5522 33.1786C98.444 32.4914 99.3633 31.8455 100.311 31.2381C100.725 30.9702 101.206 30.5005 101.49 30.8886C101.701 31.2859 101.235 31.6161 100.999 31.8207L98.6825 33.8961C99.8248 33.4419 101.572 32.6373 102.478 33.3749C103.637 34.4053 101.864 35.7595 99.8312 37.021L99.8303 37.0164ZM81.8276 55.2484C81.8276 55.2484 81.8276 55.2484 81.8276 55.2493V55.2484Z" fill="#55CFA7"/>
<path d="M100.32 58.5532C98.7821 59.055 97.1903 59.289 95.5884 59.2486C95.2187 59.2394 94.8223 59.189 94.4746 59.2679C94.1269 59.3468 93.826 59.5486 93.5214 59.7661C93.0323 60.1165 92.5442 60.4844 92.0662 60.8468C92.591 60.7468 93.1195 60.6679 93.6452 60.6092C94.2517 60.5422 95.0077 60.4587 95.6169 60.8046C96.1371 61.1001 96.5426 61.7533 96.2692 62.3809C96.0582 62.8671 95.5233 63.224 94.681 63.4396C93.9627 63.6231 93.2278 63.6506 92.502 63.7158L90.2166 63.9195C89.4946 63.9837 88.7312 63.9864 88.0284 64.1424C87.4146 64.2727 87.1146 64.925 86.688 65.3636C85.6687 66.4297 84.3411 67.6572 83.4686 68.7885C85.7054 67.4664 85.398 66.8893 88.1413 65.9526C88.6707 65.7572 89.5588 65.8902 89.7349 66.5966C89.9478 67.3462 89.0092 68.2004 88.5964 68.5325C87.3036 69.5913 84.8613 70.7611 82.7328 71.2638C82.4071 71.3207 81.9869 71.2886 81.6869 71.3859C81.5098 71.4437 81.4272 71.6804 81.3483 71.8813C81.2153 72.2189 81.0547 72.5474 80.8997 72.8648C80.2529 74.1539 79.5739 75.5879 79.4244 76.0163C80.5786 74.8649 82.9144 72.6189 84.5742 72.5263C85.6834 72.5318 85.8338 73.4226 85.476 74.341C84.954 75.6411 83.7457 76.3778 82.4484 77.0788C80.8492 77.9421 79.2501 78.7201 77.6628 79.6138C77.4188 80.1046 77.1784 80.6 76.9444 81.0836C76.8554 81.2661 76.5793 81.1735 76.6187 80.9744L76.8637 79.7395C77.0655 79.3899 77.2142 79.0853 77.438 78.7798C77.4931 78.7073 77.5619 78.6174 77.572 78.5632C77.5894 78.4743 77.539 78.3155 77.4986 78.1889C76.7499 75.7466 76.0747 72.9428 76.093 70.8666C76.0811 70.0711 75.9921 68.4077 76.9646 68.249C77.8408 68.1233 78.4913 69.4417 78.6133 69.7078C78.8473 70.2207 78.9078 70.7812 78.9721 71.3262C79.1088 72.4896 79.1987 73.8961 79.0436 75.1136C79.6216 73.8832 80.1125 72.6483 80.7685 71.451C80.8905 71.2748 81.0428 71.0877 81.1226 70.8932C81.2144 70.6913 81.1336 70.2922 81.0712 69.972C80.7813 68.093 80.9621 66.1012 81.341 64.3956C81.5593 63.4662 82.0135 61.5313 83.3539 61.3716C83.7411 61.3258 84.0475 61.4331 84.2659 61.6918C85.0136 62.579 84.4503 65.0599 83.8897 67.0086C84.9549 65.9709 86.0522 64.959 87.055 63.8562C87.3018 63.5837 87.2651 63.135 87.2293 62.7011C87.1146 60.3853 87.8073 58.0238 88.9863 56.053C89.2799 55.5613 89.7698 54.7365 90.5506 55.0319C91.2836 55.3081 91.4047 56.2907 91.4249 56.5843C91.513 58.0394 90.8166 59.3578 90.0845 60.5799C89.5799 61.3615 89.4588 61.6634 89.4569 61.7744C89.5092 61.8084 89.834 61.5716 89.9937 61.4368L91.6543 60.2211C92.6268 59.4679 93.7874 58.8091 94.5141 57.8192C94.9499 57.2045 95.1884 56.4925 95.4425 55.7393C95.6425 55.1438 95.8499 54.5282 96.1618 53.9704C96.5518 53.274 97.0096 52.6859 97.5206 52.2244C98.2289 51.5849 98.8427 51.2537 99.3969 51.2125C101.191 51.1675 99.6978 53.9548 99.184 54.875C100.068 54.4787 100.968 54.1227 101.883 53.8043C102.283 53.663 102.78 53.3658 102.94 53.7483C103.036 54.1236 102.58 54.3062 102.342 54.4309L99.9859 55.7035C101.034 55.5521 102.658 55.2291 103.269 56.0292C104.033 57.1247 102.276 57.9027 100.321 58.5504L100.32 58.5532Z" fill="#55CFA7"/>
<path d="M80.8723 33.4932L34.2573 41.499L49.1231 57.2117L77.8089 46.0057L80.8723 33.4932Z" fill="#A33426"/>
<path d="M61.9739 57.4255C61.9739 57.4255 81.65 98.777 81.4509 96.331L77.2874 31.2335L75.5837 30.0876C74.9258 29.6197 74.1285 29.4233 73.2936 29.594L40.2518 36.3447C39.2857 36.542 38.4471 37.1943 37.8645 38.0944L61.9748 57.4255H61.9739Z" fill="#A2B6EB"/>
<path d="M48.6852 116.787L84.2969 109.419C85.3089 109.21 85.2924 108.43 84.2593 107.687L72.7423 99.3964C71.7092 98.6533 70.0357 98.2156 69.0238 98.4257L33.412 105.794C32.4001 106.003 32.4166 106.783 33.4497 107.526L44.9667 115.816C45.9998 116.56 47.6732 116.997 48.6852 116.787Z" fill="#E8E1DB"/>
<path d="M36.9151 41.4597C36.8453 40.2211 37.216 39.0183 37.8656 38.0917L37.8766 38.0761C38.4785 37.1971 39.2996 36.5613 40.2648 36.3659L73.2782 29.7069C74.1131 29.5381 74.9003 29.728 75.5416 30.1821L77.6555 31.7776L80.6088 95.6723C80.6116 95.7136 80.607 95.7402 80.5978 95.7558C80.7189 98.1293 79.2289 100.369 77.2591 100.766L43.3759 107.656L42.3548 106.886C41.1988 105.966 40.4941 105.105 40.4061 103.537L36.916 41.4588L36.9151 41.4597Z" fill="#4A8F79"/>
<path d="M45.607 108.131L78.537 101.447C80.5141 101.048 81.9252 98.7668 81.7913 96.3841L78.2838 34.0116C78.1498 31.6289 76.4809 30.0334 74.5038 30.4325L41.5931 37.1227C39.6159 37.5218 38.2232 39.8082 38.3572 42.1918L41.8647 104.564C41.9986 106.947 43.6299 108.531 45.607 108.131Z" fill="white"/>
<path d="M45.9859 108.343L78.9159 101.658C80.893 101.259 82.3041 98.9779 82.1702 96.5944L78.6627 34.2218C78.5287 31.8391 76.8598 30.2436 74.8827 30.6427L41.972 37.3329C39.9948 37.732 38.6021 40.0184 38.7361 42.402L42.2436 104.775C42.3775 107.157 44.0088 108.741 45.9859 108.342V108.343Z" fill="#7DB3A2"/>
<path d="M41.4244 41.5002C41.4042 41.1423 41.6033 40.879 41.9455 40.8102L74.9048 34.1622C75.6434 34.0136 76.6205 34.7907 76.6646 35.5614L79.7051 89.629L80.0565 95.8806C80.0766 96.2385 79.8776 96.5018 79.5353 96.5706L46.576 103.219C45.8375 103.367 44.8604 102.59 44.8163 101.819L41.7758 47.7518L41.4244 41.5002Z" fill="white"/>
<g opacity="0.39">
<path d="M37.7687 56.6329L51.7941 65.9434C53.7924 63.269 56.9091 61.5451 60.4037 61.5451C63.5736 61.5451 66.415 62.9635 68.3811 65.2232L66.604 60.5239L79.5275 49.7977L79.845 55.2044L70.0106 67.6986C70.7556 69.2372 71.173 70.9785 71.1611 72.8254C71.1198 79.055 66.237 84.1057 60.2542 84.1057C54.2713 84.1057 49.4555 79.055 49.4968 72.8254C49.5041 71.7006 49.6711 70.6161 49.972 69.5913L37.955 60.4065L37.7678 56.6338L37.7687 56.6329Z" fill="#D9CABD"/>
</g>
<path d="M32.5277 16.743C33.3983 16.743 34.1057 16.0347 34.1057 15.165C34.1057 14.2952 33.3974 13.5869 32.5277 13.5869C31.6579 13.5869 30.9496 14.2952 30.9496 15.165C30.9496 16.0347 31.6579 16.743 32.5277 16.743ZM32.5277 13.9539C33.1956 13.9539 33.7387 14.497 33.7387 15.165C33.7387 15.8329 33.1956 16.376 32.5277 16.376C31.8597 16.376 31.3166 15.8329 31.3166 15.165C31.3166 14.497 31.8597 13.9539 32.5277 13.9539Z" fill="#1B2D54"/>
<path d="M7.91144 66.4847C8.78212 66.4847 9.4895 65.7764 9.4895 64.9067C9.4895 64.0369 8.78121 63.3286 7.91144 63.3286C7.04168 63.3286 6.33339 64.0369 6.33339 64.9067C6.33339 65.7764 7.04168 66.4847 7.91144 66.4847ZM7.91144 63.6956C8.57936 63.6956 9.12251 64.2387 9.12251 64.9067C9.12251 65.5746 8.57936 66.1177 7.91144 66.1177C7.24352 66.1177 6.70038 65.5746 6.70038 64.9067C6.70038 64.2387 7.24352 63.6956 7.91144 63.6956Z" fill="#1B2D54"/>
<path d="M98.0696 87.827C98.9403 87.827 99.6477 87.1187 99.6477 86.249C99.6477 85.3792 98.9394 84.6709 98.0696 84.6709C97.1999 84.6709 96.4916 85.3792 96.4916 86.249C96.4916 87.1187 97.1999 87.827 98.0696 87.827ZM98.0696 85.0379C98.7376 85.0379 99.2807 85.581 99.2807 86.249C99.2807 86.9169 98.7376 87.46 98.0696 87.46C97.4017 87.46 96.8586 86.9169 96.8586 86.249C96.8586 85.581 97.4017 85.0379 98.0696 85.0379Z" fill="#1B2D54"/>
<path d="M61.8235 63.6113C61.4978 63.4122 34.258 41.4993 34.258 41.4993L35.2287 54.8457L55.637 69.7859L61.8226 63.6104L61.8235 63.6113Z" fill="#D6573E"/>
<path d="M59.3578 65.6525C59.0321 65.4534 34.5567 46.4535 34.5567 46.4535L34.8805 49.9151L58.4614 66.9976L59.3578 65.6525Z" fill="white"/>
<path d="M61.1258 64.1093C61.3689 63.8359 80.8349 33.5685 80.8349 33.5685L81.2836 48.7701L65.7416 68.8765L61.1258 64.1093Z" fill="#D6573E"/>
<path d="M63.1305 66.0269C63.3736 65.7535 81.0093 39.3395 81.0093 39.3395L81.146 43.7406L64.6241 67.1848L63.1305 66.0269Z" fill="white"/>
<path d="M62.4161 67.2307C63.1932 67.1601 63.7721 66.4665 63.7014 65.6894L63.4271 62.6635C63.3565 61.8864 62.6629 61.3075 61.8858 61.3782C61.1087 61.4488 60.5297 62.1424 60.6004 62.9195L60.8747 65.9453C60.9453 66.7224 61.639 67.3014 62.4161 67.2307Z" fill="#DB9833"/>
<path d="M58.9509 83.1443C54.1717 81.5739 51.7023 76.0253 53.4353 70.7513C55.1683 65.4772 60.4475 62.4748 65.2266 64.0452C70.0058 65.6156 72.4753 71.1641 70.7423 76.4382C69.0093 81.7122 63.7301 84.7146 58.9509 83.1443Z" fill="#DB9833"/>
<path d="M60.9109 83.8994C56.1317 82.329 53.6623 76.7805 55.3953 71.5064C57.1283 66.2324 62.4074 63.23 67.1866 64.8004C71.9658 66.3707 74.4352 71.9193 72.7022 77.1933C70.9692 82.4674 65.69 85.4698 60.9109 83.8994Z" fill="#FFCD53"/>
<path d="M62.9856 70.2482C62.4424 68.35 62.4718 66.3765 62.9663 64.5434C67.3142 63.7057 71.541 66.3022 72.8576 70.9042C73.4007 72.8025 73.3714 74.776 72.8768 76.6091C68.5289 77.4467 64.3021 74.8503 62.9856 70.2482Z" fill="#FFDA80"/>
<path d="M63.5025 84.7287C64.6089 84.7287 65.7283 84.5158 66.7934 84.0993C71.7386 82.1643 74.5406 76.3218 73.0396 71.0757C72.8836 70.5308 72.6836 70.0014 72.4451 69.5014C72.4001 69.4069 72.2873 69.3674 72.1937 69.4124C72.0992 69.4573 72.0597 69.5702 72.1047 69.6647C72.3341 70.1454 72.5267 70.6546 72.6772 71.1794C74.1259 76.2429 71.4249 81.8808 66.6567 83.747C65.2769 84.2873 63.8034 84.4699 62.396 84.2754C62.2932 84.2617 62.1969 84.3332 62.1831 84.4369C62.1685 84.5406 62.2409 84.636 62.3446 84.6498C62.7272 84.703 63.1144 84.7287 63.5034 84.7287H63.5025Z" fill="#C48210"/>
<path d="M63.8154 81.9065C64.6302 81.9065 65.4541 81.7506 66.255 81.4368C69.924 80.0009 72.003 75.6668 70.8892 71.7758C70.3378 69.8473 69.1028 68.3242 67.4119 67.4875C65.7853 66.682 63.9255 66.6159 62.1741 67.3013C58.5051 68.7371 56.4261 73.0713 57.5399 76.9623C58.0913 78.8908 59.3262 80.4138 61.0172 81.2505C61.8998 81.6872 62.8503 81.9065 63.8154 81.9065ZM64.6136 67.2086C65.521 67.2086 66.4156 67.415 67.244 67.8251C68.8386 68.6142 70.0038 70.0537 70.5258 71.8795C71.5864 75.5888 69.6093 79.7183 66.1165 81.0854C64.4659 81.7313 62.7145 81.6698 61.1841 80.9129C59.5896 80.1239 58.4244 78.6844 57.9023 76.8586C56.8408 73.1492 58.8189 69.0197 62.3117 67.6527C63.0677 67.3563 63.8457 67.2095 64.6136 67.2095V67.2086Z" fill="#C48210"/>
<path d="M59.2813 83.3552C59.3529 83.3552 59.4217 83.3139 59.4538 83.2442C59.4969 83.1488 59.4538 83.0378 59.3593 82.9946C59.3428 82.9873 58.2207 82.4653 57.1317 81.1909C56.127 80.0138 54.9444 77.9329 55.0178 74.7025C55.0912 71.4648 56.4133 69.2225 57.5097 67.9114C58.7015 66.4866 59.8923 65.8205 59.9043 65.814C59.996 65.7636 60.0291 65.6489 59.9786 65.5572C59.9281 65.4654 59.8134 65.4324 59.7226 65.4828C59.6722 65.5104 58.4675 66.182 57.2308 67.6563C56.0913 69.0151 54.716 71.3391 54.6398 74.6934C54.5637 78.0531 55.8032 80.222 56.8573 81.4505C58.0023 82.7855 59.1547 83.3167 59.2033 83.3387C59.229 83.3497 59.2547 83.3552 59.2813 83.3552Z" fill="#C48210"/>
<path d="M26.7494 65.3433C26.7494 65.3433 24.6044 66.3048 25.3145 69.2388C26.0246 72.1729 26.0219 75.4602 27.7137 76.1915C28.7734 76.6502 31.6249 74.94 33.6057 73.5996C34.7342 72.8363 34.9525 71.2628 34.0837 70.2132C32.9093 68.7948 31.3689 66.9718 30.5367 66.1369C29.0715 64.6671 26.7494 65.3423 26.7494 65.3423V65.3433Z" fill="#5C3420"/>
<g opacity="0.47">
<path d="M20.0858 114.562C22.5392 113.038 26.8632 112.706 29.7441 113.821C30.2359 114.011 30.6515 114.232 30.9946 114.473C32.747 113.796 35.1709 113.731 36.8774 114.391C38.9014 115.175 39.1454 116.678 37.4215 117.748C35.7645 118.778 32.8974 119.03 30.879 118.354C30.7662 118.437 30.6469 118.519 30.5184 118.599C28.0651 120.123 23.7411 120.455 20.8602 119.34C17.9793 118.226 17.6325 116.086 20.0858 114.562Z" fill="#D9CABD"/>
</g>
<path d="M46.9549 73.0327C47.0742 73.4694 46.8834 73.8942 46.5311 73.9777L45.1347 73.9639C44.7824 74.0474 44.4319 73.107 45.0659 72.7996L46.0677 72.5868C46.198 72.5593 46.3329 72.5483 46.4668 72.5648C46.7164 72.595 46.8614 72.6895 46.9549 73.0327Z" fill="#D46D4E"/>
<path d="M31.3075 70.0518L37.7922 73.4363L44.9329 72.8445L44.9595 74.2446C44.9164 74.6474 39.4592 76.8906 37.8738 77.3484C37.5068 77.4548 37.1178 77.4512 36.7518 77.3429C34.4278 76.6521 28.5413 73.4198 28.5413 73.4198L31.3075 70.0518Z" fill="#E69B5C"/>
<path d="M25.0003 114.706L24.97 116.195C24.9572 116.351 24.8058 117.176 24.7397 117.318C24.548 117.729 24.2315 117.894 23.9259 117.916C23.5204 117.944 22.7057 117.227 22.9947 116.338C23.247 115.563 23.7516 114.325 23.7516 114.325C24.3232 114.588 24.5884 114.707 25.0012 114.706H25.0003Z" fill="#4A2A1A"/>
<path d="M33.8704 116.04L31.8079 113.593C31.4886 113.422 30.8904 113.352 30.4023 113.433C30.1831 113.47 30.0665 113.613 30.0509 113.833L29.995 114.238C29.9216 114.918 29.8363 115.142 30.2583 115.368L32.7639 116.713C33.2777 117.12 34.7383 116.932 33.8722 116.041L33.8704 116.04Z" fill="#4A2A1A"/>
<path d="M31.7231 113.84C31.7231 113.84 32.9011 115.298 32.747 115.399C32.1093 115.819 30.6203 114.435 30.6203 114.435C30.6203 114.435 31.4487 113.764 31.7221 113.84H31.7231Z" fill="#DE5840"/>
<path d="M30.6211 114.435C31.1964 114.439 31.7083 114.745 31.7771 113.907C31.7625 109.214 32.813 105.25 32.801 100.862C32.7882 95.9373 32.4276 95.8529 32.3974 88.3021L27.8192 89.0315C28.666 94.4602 29.0256 101.318 29.0256 101.318C27.8155 106.582 29.7385 107.965 30.622 114.435H30.6211Z" fill="#D46D4E"/>
<path d="M23.7736 114.748C24.1204 115.581 24.8066 115.815 24.9507 114.987C25.3645 110.312 26.8976 106.477 27.2875 102.108C27.7251 97.2026 27.3728 97.0852 28.0325 89.5637L23.4066 89.872C23.7543 95.3557 23.4846 102.218 23.4846 102.218C21.7982 107.348 23.4846 108.226 23.7726 114.748H23.7736Z" fill="#D46D4E"/>
<path d="M32.4846 82.1157C32.4846 82.1157 35.6086 81.3964 35.1462 98.7256C35.1462 98.7256 31.8983 100.072 28.8789 100.858C26.0329 101.598 24.1833 98.2449 21.8804 99.0421C21.8804 99.0421 23.3043 95.7282 23.1135 94.1777C22.9227 92.6262 21.9713 83.5607 24.5209 83.2653C27.0706 82.9698 32.4846 82.1157 32.4846 82.1157Z" fill="#E69B5C"/>
<path d="M21.8804 99.0467C21.8804 99.0467 22.0713 95.4327 21.8804 93.8813C21.6896 92.3299 22.1107 82.2156 24.6604 81.9202C25.2421 81.8532 25.8338 83.1056 26.6155 82.9964C26.4375 84.5056 26.0806 86.9782 25.3788 91.0234C24.4429 96.4154 26.2109 99.3907 27.9468 100.966C25.6072 100.893 23.7778 100.966 21.8804 99.0467Z" fill="#C17B46"/>
<path d="M30.551 69.782C30.3207 69.726 30.0858 69.704 29.8491 69.7178C28.7592 69.7783 27.2463 69.3664 27.1343 69.4425L25.0975 70.4508C21.1919 71.816 21.1451 72.9519 22.2084 75.029C22.2084 75.029 24.6012 78.6118 24.7076 80.1412C24.7994 81.4633 23.6947 83.5569 23.4855 83.99C23.2149 84.5515 25.1278 87.9214 30.2088 87.1333C34.2099 86.513 33.6878 84.8744 33.5163 82.6872C33.408 81.311 32.4208 77.6677 32.3979 76.575C32.3749 75.4823 33.1777 74.6299 32.5254 72.8987C32.1758 71.9729 31.9593 71.2426 31.8327 70.7637C31.7263 70.3591 31.4171 70.0407 31.0152 69.9205L30.5519 69.7811L30.551 69.782Z" fill="#E69B5C"/>
<path d="M28.0046 70.5142L28.1303 70.3904C28.4486 70.4775 28.7321 70.4399 28.8 70.1243L29.1817 68.3481C29.2496 68.0334 29.045 67.704 28.7266 67.6178L28.6321 67.5921C28.3138 67.5049 27.8128 67.5719 27.7449 67.8875L27.2605 69.7601C27.1926 70.0748 27.6862 70.4271 28.0046 70.5142Z" fill="#D46D4E"/>
<path d="M28.9688 69.2985C28.9688 69.2985 28.1926 69.2279 27.7265 68.4279C27.7265 68.4279 28.1751 69.6031 28.8779 69.7793L28.9688 69.2985Z" fill="#63342E"/>
<path d="M27.5012 65.5479C27.804 65.0736 28.2416 64.9956 28.6352 65.2764C29.0371 65.114 29.505 65.3672 29.8343 65.9984C30.2922 66.8774 30.372 68.26 29.9307 68.9527C29.738 69.2545 29.4453 69.316 29.1719 69.3188C28.916 69.3206 28.6581 69.2655 28.415 69.1692C27.5434 68.8224 27.5232 68.9527 27.2186 68.3673C26.7608 67.4884 27.0599 66.2416 27.5021 65.5489L27.5012 65.5479Z" fill="#D46D4E"/>
<path d="M28.0531 65.869C27.6898 66.7039 27.543 68.6517 27.4824 68.9077C27.4824 68.9077 25.709 68.7572 26.0548 66.7654C26.4842 64.2845 27.8357 65.624 27.8357 65.624L28.0531 65.869Z" fill="#5C3420"/>
<path d="M27.4293 66.1791C28.4192 65.8323 29.2376 65.5598 30.6698 66.9012C30.7946 66.6938 30.5404 65.9644 30.2386 65.7167C29.6092 65.1993 29.2917 64.9203 28.589 64.7258L28.4174 64.6974C27.3825 64.5258 26.8091 64.8965 26.5329 65.8855C26.5081 65.9727 26.309 66.3654 26.2989 66.4388L26.6384 66.3452C26.5595 66.9351 26.8366 66.0644 27.4293 66.1791Z" fill="#5C3420"/>
<path d="M29.351 68.7407C29.5519 68.693 29.7437 68.4068 29.7786 68.1003L29.051 68.2728C29.0152 68.5793 29.1501 68.7884 29.351 68.7417V68.7407Z" fill="white"/>
<path d="M26.9045 67.893C26.8723 68.1719 27.0723 68.4233 27.3503 68.4554C27.6293 68.4875 27.8806 68.2875 27.9128 68.0095C27.9449 67.7315 27.7449 67.4792 27.4669 67.4471C27.1889 67.415 26.9366 67.615 26.9045 67.893Z" fill="#D46D4E"/>
<path d="M23.4525 84.0359C23.6608 83.6029 24.7663 81.5092 24.6746 80.1871C24.614 79.321 23.1451 77.3191 23.3314 76.364C24.6645 78.777 25.1608 79.8605 26.6838 80.1C24.37 83.8809 26.1673 85.3929 26.0856 86.7691C22.2323 86.6957 23.214 84.5323 23.4534 84.0359H23.4525Z" fill="#C17B46"/>
<path d="M28.9431 69.4352L29.4661 69.5986C29.4661 69.5986 29.7211 70.5261 29.2872 70.8812L28.5128 70.3802C28.5128 70.3802 28.9982 69.9233 28.9431 69.4343V69.4352Z" fill="white"/>
<path d="M28.5128 70.3811L28.0266 71.1482C28.0266 71.1482 26.6503 70.6885 26.6338 69.7931L27.2036 69.4949C27.2036 69.4949 27.8862 70.4481 28.5119 70.3802L28.5128 70.3811Z" fill="white"/>
<path d="M24.9493 114.987C24.9493 114.987 24.6787 116.59 24.0071 116.454C23.3355 116.319 23.7722 114.748 23.7722 114.748L24.9493 114.987Z" fill="#DE5840"/>
<path d="M23.7129 87.5783C23.3037 87.5636 22.9789 87.2756 22.9908 86.9388L23.3404 85.6993C23.3523 85.3626 23.3569 85.1158 23.767 85.1305C24.1762 85.1452 24.4028 85.3507 24.3726 85.9599L24.3166 86.9113C24.3092 87.0352 24.2863 87.1581 24.2395 87.2728C24.1533 87.4866 24.0349 87.5893 23.7129 87.5774V87.5783Z" fill="#D46D4E"/>
<path d="M22.0951 72.0776C22.0951 72.0776 18.2169 75.419 16.9536 79.1577C15.6902 82.8964 23.1878 86.1837 23.1878 86.1837L24.3273 85.369C24.4979 85.247 24.5034 84.9864 24.3383 84.8451C23.3071 83.9662 20.25 81.2771 20.6785 80.6303C21.3914 79.5541 26.1907 74.8759 26.1907 74.8759L22.0951 72.0767V72.0776Z" fill="#E69B5C"/>
<path d="M74.9255 72.1978C75.0182 72.1978 75.098 72.1271 75.1081 72.0336C75.2108 71.0454 74.9961 70.0546 74.4723 69.0894C74.4236 69.0004 74.3126 68.9674 74.2236 69.016C74.1346 69.0646 74.1016 69.1756 74.1502 69.2646C74.6457 70.1766 74.8402 71.0702 74.7438 71.9959C74.7337 72.0969 74.8062 72.1868 74.9071 72.1978C74.9136 72.1978 74.92 72.1987 74.9264 72.1987L74.9255 72.1978Z" fill="#D6573E"/>
<path d="M51.8067 74.854C51.8204 74.854 51.8342 74.8522 51.8489 74.8494C51.948 74.8265 52.0085 74.7274 51.9856 74.6292C51.7489 73.6191 51.7975 72.7062 52.1342 71.8383C52.1709 71.7438 52.1241 71.6373 52.0296 71.6006C51.936 71.5639 51.8287 71.6107 51.792 71.7052C51.4324 72.631 51.3773 73.6429 51.6278 74.7127C51.648 74.7971 51.7232 74.854 51.8067 74.854Z" fill="#D6573E"/>
</g>
<defs>
<clipPath id="clip0_162_4921">
<rect width="118.617" height="120" fill="white" transform="matrix(-1 0 0 1 118.617 0)"/>
</clipPath>
</defs>
</svg>
