<svg width="160" height="131" viewBox="0 0 160 131" fill="none" xmlns="http://www.w3.org/2000/svg">
<g clip-path="url(#clip0_162_4491)">
<path d="M66.5731 91.2219C64.0677 85.7742 59.5553 81.4979 53.961 79.3414C42.1421 74.785 23.361 64.4657 25.1143 45.2845C27.6564 17.4801 56.6409 -10.6248 96.8492 4.51909C137.057 19.663 150.32 104.359 111.547 112.245C91.0746 116.408 75.7518 111.174 66.5731 91.2219Z" fill="#CCF1F9"/>
<path d="M116.619 89.2028L110.011 61.0216C109.623 59.368 109.026 57.77 108.233 56.2674L98.3595 37.5552C96.9903 34.9618 94.4379 33.1513 91.4165 32.6338L80.5797 30.7764C80.5797 30.7764 75.2009 49.9254 78.0861 70.97C78.2561 72.2117 78.4804 73.3508 78.7487 74.4019L73.6514 74.2612L80.678 93.0027C81.9505 96.3965 85.1874 101.717 88.2616 103.769L90.6204 105.489L116.619 89.2013V89.2028Z" fill="#ED795A"/>
<path d="M65.0458 50.3877L59.5571 49.1885C58.0427 48.8572 56.5224 49.9112 56.3274 51.4608C56.0225 53.8988 57.0986 57.2384 64.5781 58.4082C76.878 60.3316 65.0458 50.3877 65.0458 50.3877Z" fill="#ED795A"/>
<path d="M68.2224 37.2462L62.7439 36.0016C61.2324 35.6585 59.7034 36.6994 59.4967 38.249C59.1712 40.684 60.2194 44.0339 67.6888 45.2653C79.9695 47.2899 68.2224 37.2462 68.2224 37.2462Z" fill="#ED795A"/>
<path d="M63.3127 57.2543L58.4895 56.989C56.1175 56.8585 54.3202 59.2584 55.1983 61.4486C55.9841 63.4101 58.2784 65.2456 64.1205 65.2192C76.6153 65.1635 63.3127 57.2543 63.3127 57.2543Z" fill="#ED795A"/>
<path d="M64.6746 68.0356L59.0672 67.65C57.2918 67.5284 55.9255 69.2832 56.5134 70.9515C57.1525 72.7693 59.3589 74.6458 65.6847 74.7631C78.1326 74.9933 64.6746 68.0356 64.6746 68.0356Z" fill="#ED795A"/>
<path d="M90.166 101.362L90.751 115.811C91.4458 125.054 100.004 131.709 109.114 130.002C109.237 129.979 109.361 129.955 109.484 129.93C118.05 128.233 123.446 119.686 121.502 111.173L116.44 88.6372L90.166 101.359V101.362Z" fill="#ED795A"/>
<path d="M68.95 85.4455L98.32 85.1626C101.328 85.1333 103.743 82.6718 103.713 79.6636L103.095 15.4523C103.066 12.4441 100.604 10.0295 97.5958 10.0589L68.2258 10.3418C65.2175 10.3711 62.803 12.8326 62.8323 15.8408L63.451 80.0521C63.4803 83.0603 65.9417 85.4749 68.95 85.4455Z" fill="#3D2213"/>
<path d="M68.3907 78.928L98.617 78.6362C100.288 78.6201 101.63 77.2523 101.613 75.5811L101.03 14.9483C101.014 13.2771 99.6461 11.9357 97.9748 11.9518L67.7486 12.2435C66.0774 12.2597 64.736 13.6275 64.7521 15.2987L65.3356 75.9315C65.3517 77.6027 66.7195 78.9441 68.3907 78.928Z" fill="white"/>
<path fill-rule="evenodd" clip-rule="evenodd" d="M105.197 102.924C105.511 103.051 105.663 103.408 105.536 103.722C104.93 105.222 103.301 105.843 102.059 106.114C101.409 106.256 100.797 106.318 100.349 106.344C100.124 106.358 99.9382 106.362 99.8074 106.364C99.742 106.364 99.6901 106.364 99.6538 106.364C99.6356 106.363 99.6213 106.363 99.6111 106.363L99.5989 106.363L99.5952 106.363L99.5934 106.363C99.5932 106.363 99.5931 106.363 99.6108 105.75L99.5931 106.363C99.2548 106.353 98.9885 106.071 98.9983 105.732C99.0081 105.394 99.2901 105.128 99.6281 105.137L99.6283 105.137C99.6284 105.137 99.6285 105.137 99.6286 105.137L99.6359 105.138C99.6423 105.138 99.6528 105.138 99.6671 105.138C99.6956 105.138 99.7391 105.139 99.7956 105.138C99.9089 105.137 100.074 105.133 100.276 105.121C100.682 105.097 101.228 105.041 101.797 104.917C102.992 104.656 104.042 104.148 104.399 103.263C104.526 102.949 104.883 102.797 105.197 102.924Z" fill="#B34725"/>
<path d="M103.077 91.9653C102.665 91.7161 111.201 77.2304 107.327 68.8009C105.4 64.6095 96.5941 58.1606 95.0035 56.2459C94.7367 55.9249 94.4141 55.6581 94.0491 55.4543L78.7469 49.9963C77.9376 49.7075 77.0536 50.2074 76.9012 51.0519C76.4511 53.5514 77.146 56.6682 81.6628 59.112C82.7286 59.6881 86.8451 61.5294 88.8931 63.878C92.6491 68.1837 92.7473 78.1892 93.5624 83.395C96.0326 99.1532 102.316 97.9833 102.316 97.9833L103.072 91.9638L103.077 91.9653Z" fill="#ED795A"/>
<path fill-rule="evenodd" clip-rule="evenodd" d="M93.6055 85.1082C93.9328 85.0221 94.2679 85.2177 94.354 85.545C94.9459 87.7956 95.9721 90.3623 97.194 92.4295C97.805 93.4632 98.4542 94.3538 99.1083 95.0149C99.7697 95.6834 100.39 96.0712 100.94 96.1873C101.271 96.2572 101.482 96.5824 101.412 96.9135C101.342 97.2447 101.017 97.4563 100.686 97.3864C99.8031 97.1997 98.9774 96.6252 98.2371 95.8769C97.4894 95.1212 96.7816 94.1404 96.1389 93.0532C94.8536 90.8785 93.7863 88.205 93.1687 85.8567C93.0827 85.5294 93.2782 85.1943 93.6055 85.1082Z" fill="#B34725"/>
<path d="M84.626 44.1263C86.9965 45.6495 89.2864 47.2973 91.484 49.0609C92.129 49.5784 93.079 49.0858 93.0277 48.2605C92.843 45.3387 92.7418 42.4111 92.7242 39.4835C92.7242 39.3119 92.5307 39.2108 92.3885 39.309C89.9637 40.9832 87.5404 42.6603 85.1405 44.3697C85.1215 44.3829 85.0995 44.3946 85.076 44.4005C85.0115 44.4195 84.9397 44.4078 84.8869 44.3653C84.8356 44.3242 84.7564 44.2539 84.6289 44.1263H84.626Z" fill="#7A92E6"/>
<path d="M69.7394 18.2354H88.5747C93.3876 18.2354 97.2945 22.1423 97.2945 26.9552V37.3008C97.2945 42.1137 93.3876 46.0207 88.5747 46.0207H69.7394C64.9264 46.0207 61.0195 42.1137 61.0195 37.3008V26.9552C61.0195 22.1423 64.9264 18.2354 69.7394 18.2354Z" fill="#7A92E6"/>
<path d="M60.873 32.1273C60.873 33.6182 61.1105 35.0549 61.5459 36.4007H62.4475C70.1206 36.4007 76.3395 30.1804 76.3395 22.5088C76.3395 21.0178 76.102 19.5811 75.6666 18.2354H74.765C67.0919 18.2354 60.873 24.4556 60.873 32.1273Z" fill="#8CA4F2"/>
<path d="M71.7192 34.289C73.0397 34.289 74.1103 33.2184 74.1103 31.8979C74.1103 30.5774 73.0397 29.5068 71.7192 29.5068C70.3986 29.5068 69.3281 30.5774 69.3281 31.8979C69.3281 33.2184 70.3986 34.289 71.7192 34.289Z" fill="white"/>
<path d="M78.8803 34.2895C80.2009 34.2895 81.2714 33.2189 81.2714 31.8984C81.2714 30.5778 80.2009 29.5073 78.8803 29.5073C77.5598 29.5073 76.4893 30.5778 76.4893 31.8984C76.4893 33.2189 77.5598 34.2895 78.8803 34.2895Z" fill="white"/>
<path d="M86.94 34.1423C88.1621 33.6419 88.7471 32.2455 88.2466 31.0235C87.7462 29.8014 86.3498 29.2165 85.1277 29.7169C83.9057 30.2174 83.3207 31.6137 83.8212 32.8358C84.3216 34.0578 85.718 34.6428 86.94 34.1423Z" fill="white"/>
<path fill-rule="evenodd" clip-rule="evenodd" d="M36.9409 31.9304C36.9337 32.6858 37.5402 33.304 38.2955 33.3113C39.0509 33.3185 39.6691 32.712 39.6764 31.9567C39.6836 31.2013 39.0772 30.5831 38.3218 30.5758C37.5664 30.5686 36.9482 31.175 36.9409 31.9304ZM38.2873 34.1703C37.0575 34.1585 36.0701 33.152 36.0819 31.9222C36.0937 30.6923 37.1002 29.705 38.33 29.7168C39.5598 29.7286 40.5472 30.7351 40.5354 31.9649C40.5236 33.1947 39.5171 34.1821 38.2873 34.1703Z" fill="#BD866C"/>
<path fill-rule="evenodd" clip-rule="evenodd" d="M120.175 71.507C119.419 71.507 118.807 72.1194 118.807 72.8748C118.807 73.6302 119.419 74.2426 120.175 74.2426C120.93 74.2426 121.543 73.6302 121.543 72.8748C121.543 72.1194 120.93 71.507 120.175 71.507ZM117.948 72.8748C117.948 71.645 118.945 70.6479 120.175 70.6479C121.405 70.6479 122.402 71.645 122.402 72.8748C122.402 74.1047 121.405 75.1017 120.175 75.1017C118.945 75.1017 117.948 74.1047 117.948 72.8748Z" fill="#BD866C"/>
</g>
<defs>
<clipPath id="clip0_162_4491">
<rect width="109.728" height="130" fill="white" transform="translate(25 0.270508)"/>
</clipPath>
</defs>
</svg>
