<svg width="160" height="130" viewBox="0 0 160 130" fill="none" xmlns="http://www.w3.org/2000/svg">
<g clip-path="url(#clip0_162_4463)">
<path d="M11.7493 36.0667C-20.5118 83.6806 17.2788 146.896 81.1506 125.83C81.8262 125.607 82.4956 125.344 83.1733 125.085C150.973 99.2208 158.477 72.7122 149.342 42.4992C138.803 7.63226 56.1175 -29.4153 11.7493 36.0667Z" fill="#FAEADD"/>
<path d="M122.891 89.976L149.017 67.1741C154.614 62.2908 157.441 54.8586 156.178 47.5379C155.658 44.5216 154.534 41.9053 152.372 39.2827C143.685 28.7521 127.379 29.1772 118.905 39.8804L106.291 55.8142C106.291 55.8142 101.971 70.1335 100.673 71.9353C90.2494 86.3914 105.289 97.8355 105.289 97.8355L122.891 89.9739V89.976Z" fill="#B85339"/>
<path d="M117.377 74.8573C115.588 65.0676 118.772 56.0567 109.111 53.674C101.224 51.7312 78.3654 51.0598 69.946 55.019C69.946 55.019 63.0779 57.6711 60.4047 62.2955C60.4047 62.2955 55.9382 61.4557 52.4442 66.0021C52.4442 66.0021 47.1862 72.1567 47.9566 78.3892C47.9566 78.3892 45.3319 76.8569 42.5619 81.637C39.7919 86.4171 41.5789 106.283 46.2327 105.609C50.8866 104.936 63.2799 86.3392 63.2799 86.3392C63.2799 86.3392 63.3578 86.2719 63.4967 86.1435L84.0443 102.572L105.802 94.6576L117.549 91.9024C117.549 91.9024 118.983 83.6366 117.377 74.8552V74.8573Z" fill="#B85339"/>
<path d="M96.1855 70.7381L58.5297 123.012L41.6614 110.861L79.3172 58.5867C82.4998 54.1687 88.6628 53.1667 93.083 56.3493L93.9502 56.9744C98.3683 60.157 99.3702 66.32 96.1876 70.7402L96.1855 70.7381Z" fill="#FFC066"/>
<path d="M97.9961 68.3298L94.7736 72.8048C91.9678 65.1431 85.3165 62.4131 77.9053 60.6534L81.1257 56.1827C84.2956 51.7815 90.326 50.5291 94.9588 53.3454C95.0809 53.4191 95.2009 53.4948 95.3208 53.5706C100.297 56.7468 101.446 63.5413 97.9961 68.3298Z" fill="white"/>
<path d="M69.3402 109.423C65.7872 109.724 63.6908 104.653 66.2861 102.13C67.4543 100.993 68.7972 99.2187 70.8936 97.9073C80.256 92.0559 98.8839 83.769 98.8839 83.769L122.846 89.6268C122.846 89.6268 115.188 102.843 99.3512 103.818C88.7322 104.472 76.7977 108.792 69.3381 109.423H69.3402Z" fill="#B85339"/>
<path fill-rule="evenodd" clip-rule="evenodd" d="M48.5898 79.5054C48.9787 79.505 49.2942 79.8199 49.2946 80.2087L49.3094 94.9427C49.3097 95.3316 48.9948 95.6471 48.606 95.6475C48.2171 95.6479 47.9016 95.333 47.9012 94.9441L47.8865 80.2101C47.8861 79.8213 48.201 79.5058 48.5898 79.5054Z" fill="#783314"/>
<path d="M57.4607 84.5436C57.4607 84.5436 53.4993 96.6592 61.2557 94.6491C63.1311 94.1628 70.5276 89.328 69.0942 74.5898C68.0102 63.4488 57.4607 84.5436 57.4607 84.5436Z" fill="#B85339"/>
<path d="M41.6593 110.86L41.333 129.358L58.5297 123.012C57.1405 115.276 50.0155 112.534 41.6614 110.86H41.6593Z" fill="white"/>
<path d="M41.4635 123.136L41.333 129.358L47.1824 127.199C46.2121 124.662 44.3472 123.256 41.4635 123.136Z" fill="#A65329"/>
<path fill-rule="evenodd" clip-rule="evenodd" d="M85.8014 69.7878C86.1051 70.0105 86.1708 70.4373 85.9481 70.741L53.8112 114.57C53.5885 114.874 53.1617 114.94 52.858 114.717C52.5542 114.494 52.4885 114.068 52.7112 113.764L84.8482 69.9345C85.0709 69.6308 85.4976 69.5651 85.8014 69.7878Z" fill="#C46231"/>
<path fill-rule="evenodd" clip-rule="evenodd" d="M46.5444 111.96C44.8748 111.611 43.3549 111.628 42.1988 112.022C41.8423 112.143 41.4549 111.952 41.3336 111.596C41.2123 111.239 41.403 110.852 41.7596 110.73C43.2241 110.232 45.0099 110.246 46.8235 110.625C48.646 111.006 50.5492 111.766 52.2774 112.823C55.704 114.919 58.6072 118.295 58.5865 122.365C58.5846 122.741 58.2777 123.045 57.9011 123.043C57.5244 123.041 57.2207 122.734 57.2226 122.358C57.2398 118.974 54.8009 115.966 51.5656 113.987C49.9629 113.006 48.2052 112.307 46.5444 111.96Z" fill="#C46231"/>
<path fill-rule="evenodd" clip-rule="evenodd" d="M97.8098 77.1597C98.0784 77.4409 98.0681 77.8866 97.7869 78.1551L85.1073 90.2644C85.069 90.3009 85.0267 90.333 84.9813 90.3601L78.2731 94.3551C78.2493 94.3693 78.2246 94.3821 78.1993 94.3934C71.1302 97.5418 68.0495 100.362 66.7224 102.306C66.0624 103.273 65.8349 104.024 65.7613 104.501C65.7242 104.741 65.7252 104.916 65.7324 105.021C65.7361 105.074 65.7413 105.109 65.7442 105.126C65.745 105.131 65.7457 105.134 65.7461 105.136C65.8382 105.507 65.6171 105.885 65.2466 105.985C64.8712 106.087 64.4846 105.865 64.3831 105.49L65.0627 105.306C64.3831 105.49 64.3828 105.489 64.3825 105.488L64.382 105.486L64.3808 105.481C64.3799 105.478 64.3791 105.474 64.3781 105.47C64.3762 105.463 64.3741 105.454 64.3717 105.443C64.3671 105.423 64.3619 105.396 64.3565 105.365C64.3458 105.303 64.3347 105.22 64.3276 105.118C64.3135 104.914 64.3159 104.633 64.3696 104.286C64.4775 103.588 64.7891 102.641 65.5594 101.512C67.0901 99.2702 70.4253 96.3194 77.5883 93.124L84.1923 89.191L96.8144 77.1368C97.0956 76.8682 97.5413 76.8785 97.8098 77.1597ZM65.7428 105.124L65.7429 105.124ZM65.7428 105.124C65.7427 105.123 65.7425 105.123 65.7423 105.122L65.0653 105.305C65.7423 105.122 65.7426 105.123 65.7428 105.124Z" fill="#783314"/>
<path fill-rule="evenodd" clip-rule="evenodd" d="M45.3992 105.505C45.7133 105.713 45.7994 106.136 45.5915 106.45L42.3669 111.323C42.1591 111.637 41.7359 111.723 41.4218 111.516C41.1077 111.308 41.0216 110.885 41.2295 110.571L44.4541 105.698C44.662 105.384 45.0851 105.298 45.3992 105.505Z" fill="#C46231"/>
<path fill-rule="evenodd" clip-rule="evenodd" d="M68.0938 86.7248C68.4619 86.8501 68.6587 87.2502 68.5333 87.6183C67.1807 91.5899 64.8404 93.661 62.8031 94.7265C61.792 95.2553 60.8657 95.5315 60.1879 95.6757C59.8486 95.748 59.5702 95.7874 59.3728 95.809C59.274 95.8198 59.1952 95.8261 59.1391 95.8297C59.111 95.8316 59.0885 95.8327 59.072 95.8335C59.0637 95.8339 59.0569 95.8341 59.0517 95.8343L59.0449 95.8345L59.0424 95.8346L59.0413 95.8346C59.0409 95.8346 59.0404 95.8347 59.0222 95.1308L59.0404 95.8347C58.6517 95.8447 58.3284 95.5378 58.3184 95.149C58.3083 94.761 58.6142 94.4382 59.0019 94.427C59.0015 94.4271 59.0015 94.4271 59.0018 94.427L59.0019 94.427C59.0019 94.427 59.0019 94.427 59.0019 94.427M59.0029 94.427L59.0026 94.427L59.0086 94.4268C59.0159 94.4264 59.0289 94.4258 59.0473 94.4246C59.0842 94.4222 59.1426 94.4176 59.2201 94.4091C59.3752 94.3922 59.6064 94.3598 59.8947 94.2985C60.472 94.1756 61.2731 93.9376 62.1505 93.4787C63.8904 92.5688 65.9724 90.7701 67.2003 87.1643C67.3257 86.7962 67.7257 86.5994 68.0938 86.7248" fill="#783314"/>
<path fill-rule="evenodd" clip-rule="evenodd" d="M89.4262 89.9434C89.5036 90.3245 89.2574 90.6962 88.8763 90.7736L82.4313 92.0828C82.0502 92.1602 81.6786 91.9141 81.6011 91.533C81.5237 91.1519 81.7699 90.7803 82.151 90.7028L88.596 89.3936C88.9771 89.3162 89.3488 89.5624 89.4262 89.9434Z" fill="#783314"/>
<path fill-rule="evenodd" clip-rule="evenodd" d="M57.3814 68.1249C57.7677 68.1698 58.0444 68.5193 57.9995 68.9055L57.3176 68.8263C57.9995 68.9055 57.9995 68.9054 57.9995 68.9055L57.9942 68.952C57.9906 68.9832 57.9853 69.0298 57.9785 69.091C57.9648 69.2134 57.9448 69.3942 57.9199 69.627C57.8699 70.0925 57.8001 70.7657 57.7205 71.5946C57.5613 73.2529 57.3633 75.5328 57.208 78.02C56.8953 83.029 56.7646 88.7667 57.4279 92.0069C57.5059 92.3879 57.2603 92.7599 56.8794 92.8379C56.4984 92.9159 56.1264 92.6703 56.0484 92.2894C55.3415 88.8362 55.4917 82.9119 55.8026 77.9323C55.9591 75.4252 56.1585 73.1291 56.3188 71.4601C56.3989 70.6253 56.4693 69.9469 56.5197 69.4769C56.5449 69.2418 56.5651 69.0588 56.5791 68.9343C56.586 68.8721 56.5914 68.8245 56.5951 68.7923L56.6007 68.7433C56.6008 68.7431 56.6008 68.743 57.2925 68.8234L56.6008 68.743C56.6457 68.3567 56.9952 68.08 57.3814 68.1249Z" fill="#783314"/>
<path fill-rule="evenodd" clip-rule="evenodd" d="M19.9831 55.9507C19.7472 57.0093 20.4142 58.0587 21.4729 58.2946C22.5315 58.5304 23.5809 57.8634 23.8167 56.8048C24.0526 55.7462 23.3856 54.6968 22.327 54.4609C21.2683 54.2251 20.2189 54.8921 19.9831 55.9507ZM21.2046 59.4985C19.4811 59.1145 18.3952 57.406 18.7791 55.6825C19.1631 53.9589 20.8716 52.873 22.5952 53.257C24.3187 53.641 25.4047 55.3495 25.0207 57.073C24.6367 58.7966 22.9282 59.8825 21.2046 59.4985Z" fill="#BD866C"/>
<path fill-rule="evenodd" clip-rule="evenodd" d="M87.0234 13.7129C85.9389 13.7129 85.0596 14.5922 85.0596 15.6768C85.0596 16.7614 85.9389 17.6406 87.0234 17.6406C88.108 17.6406 88.9873 16.7614 88.9873 15.6768C88.9873 14.5922 88.108 13.7129 87.0234 13.7129ZM83.8262 15.6768C83.8262 13.911 85.2576 12.4795 87.0234 12.4795C88.7893 12.4795 90.2207 13.911 90.2207 15.6768C90.2207 17.4426 88.7893 18.874 87.0234 18.874C85.2576 18.874 83.8262 17.4426 83.8262 15.6768Z" fill="#BD866C"/>
<path fill-rule="evenodd" clip-rule="evenodd" d="M132.888 112.193C131.803 112.193 130.924 113.072 130.924 114.157C130.924 115.241 131.803 116.121 132.888 116.121C133.972 116.121 134.852 115.241 134.852 114.157C134.852 113.072 133.972 112.193 132.888 112.193ZM129.691 114.157C129.691 112.391 131.122 110.959 132.888 110.959C134.654 110.959 136.085 112.391 136.085 114.157C136.085 115.923 134.654 117.354 132.888 117.354C131.122 117.354 129.691 115.923 129.691 114.157Z" fill="#BD866C"/>
<path fill-rule="evenodd" clip-rule="evenodd" d="M76.1409 62.4121C76.4297 62.6724 76.4528 63.1176 76.1925 63.4064C75.0911 64.6282 73.4385 66.68 72.0767 68.8433C71.3959 69.9246 70.7968 71.0198 70.3748 72.0429C69.9487 73.076 69.7255 73.9833 69.7431 74.7051C69.7525 75.0938 69.4451 75.4166 69.0564 75.4261C68.6676 75.4356 68.3448 75.1281 68.3353 74.7394C68.3108 73.7351 68.6147 72.6174 69.073 71.506C69.5356 70.3845 70.1783 69.2157 70.885 68.0931C72.298 65.8484 74.0027 63.7326 75.1465 62.4636C75.4069 62.1748 75.8521 62.1517 76.1409 62.4121Z" fill="#783314"/>
</g>
<defs>
<clipPath id="clip0_162_4463">
<rect width="156.473" height="130" fill="white"/>
</clipPath>
</defs>
</svg>
