<svg width="69" height="173" viewBox="0 0 69 173" fill="none" xmlns="http://www.w3.org/2000/svg">
<g clip-path="url(#clip0_162_4637)">
<path d="M130.326 128.228C126.9 110.734 119.705 93.1661 112.499 76.9257C107.307 65.2247 97.6089 63.2429 85.6207 62.7577C85.5329 62.7548 85.445 62.7519 85.3543 62.7519C77.3339 44.1584 67.5272 26.8394 52.8539 12.6656C46.3152 6.34599 36.3446 -2.49036 26.4267 0.657756C16.4385 3.82925 13.8763 19.2775 12.2453 27.7426C8.585 46.7453 11.0066 66.1952 14.8983 84.9669C14.8719 84.9874 14.8455 85.0079 14.8192 85.0254C7.11503 90.9095 -1.696 98.2726 0.280556 109.097C3.71244 127.877 8.82512 146.602 15.7855 164.398C17.601 169.045 21.9933 176.712 27.1207 170.928C30.9098 166.651 32.4413 159.718 34.8922 154.676C38.7457 146.754 43.3489 139.198 48.4645 132.034C54.4322 131.353 60.3267 129.333 65.9958 127.594C72.2622 125.67 79.1025 123.776 84.9619 120.537C93.2458 123.455 101.178 127.088 108.929 131.209C114.367 134.103 119.509 138.625 125.486 140.332C132.686 142.39 131.011 131.747 130.32 128.225L130.326 128.228ZM110.768 81.8539C116.224 94.1424 120.443 106.972 124.285 119.836C125.398 123.563 126.61 127.333 127.219 131.186C115.89 124.65 104.197 118.246 91.647 114.408C93.3747 111.35 93.7993 107.761 92.8564 103.537C90.4933 92.9351 86.6251 82.5525 83.2987 72.2254C83.2196 71.9857 83.1435 71.7431 83.0644 71.5005C83.814 69.7818 84.5637 68.063 85.3162 66.3443C85.4187 66.3472 85.5183 66.3501 85.6207 66.353C90.2854 66.543 94.8154 66.9347 99.3161 68.2267C105.995 70.1471 108.23 76.1277 110.771 81.851L110.768 81.8539ZM56.5318 21.5107C50.5699 33.425 25.7678 43.0506 14.7665 34.109C14.8719 33.0772 14.9949 31.9723 15.1413 30.8089C27.5804 37.5523 47.4308 31.7998 54.6606 19.5026C55.1877 20.0638 55.6796 20.5929 56.1306 21.0606C56.2682 21.2067 56.3941 21.3675 56.5318 21.5107ZM28.4764 3.78248C36.3504 1.28036 45.7237 10.0962 52.0574 16.7374C45.8525 28.4149 26.7839 33.9862 15.6977 26.9651C17.2467 17.4594 20.5468 6.29922 28.4794 3.78248H28.4764ZM14.4239 38.1808C27.6448 45.9181 51.7002 37.2571 59.0852 24.387C69.1348 36.0499 76.1919 50.4985 82.2123 64.5028C81.735 65.5989 81.2548 66.698 80.7745 67.7941C80.4349 68.5745 80.0952 69.3521 79.7555 70.1296C79.2665 71.255 79.4451 72.0208 79.8199 73.1813C82.1479 80.4041 84.4699 87.6298 86.6808 94.8877C88.9004 102.175 92.3674 110.321 85.6998 115.884C80.306 119.453 73.8083 121.327 67.6795 123.291C64.0309 111.751 60.3795 100.211 56.7309 88.6733C82.7599 77.4313 71.7263 37.2571 42.3592 43.6323C11.2614 50.3845 23.3696 96.5656 53.3078 89.787C56.9564 101.327 60.6049 112.867 64.2564 124.407C58.1481 126.419 51.6504 128.503 45.2932 128.663C37.2728 128.079 35.2816 120.85 32.9303 113.905C30.2978 106.136 27.9084 98.2814 25.4809 90.4476C25.1675 89.4363 24.9831 88.5331 24.0314 87.9514C23.2964 87.5041 22.5614 87.054 21.8294 86.6068C20.7166 85.9286 19.6068 85.2505 18.4941 84.5723C15.3053 69.3082 13.2409 53.7723 14.4297 38.1808H14.4239ZM53.9696 85.9432C28.4911 93.2099 16.3507 56.4644 41.425 47.6368C67.3281 38.5199 78.9766 77.0163 53.9696 85.9432ZM6.47961 121.479C5.00378 115.282 2.7022 108.261 4.22488 101.947C5.62164 96.1534 12.2014 91.5233 16.6376 88.1326C16.7548 88.0449 16.869 87.9601 16.9861 87.8724C18.5966 88.8575 20.2071 89.8367 21.8206 90.8189C21.8821 91.0147 21.9406 91.2076 22.0021 91.4035C25.1324 101.497 28.1368 111.66 31.8175 121.569C33.4544 125.98 35.9698 129.181 39.4836 130.894C31.5569 141.078 25.7298 152.784 20.2891 164.45C18.1252 160.449 16.1515 154.825 15.9114 154.129C12.2424 143.404 9.11208 132.507 6.48547 121.482L6.47961 121.479ZM30.3944 155.716C28.5057 159.604 27.0562 163.708 25.0738 167.543C24.1397 169.349 22.781 168.376 21.3931 166.306C26.9948 154.26 32.9332 142.045 41.2025 131.581C42.0839 131.864 43.0239 132.069 44.0165 132.186C38.857 139.672 34.3739 147.529 30.3944 155.716ZM113.536 129.648C105.629 125.071 97.2575 121.265 88.6837 118.097C88.7276 118.041 88.7744 117.986 88.8067 117.924C89.4831 117.302 90.0834 116.65 90.6046 115.969C103.653 119.871 115.752 126.629 127.489 133.419C127.535 133.925 127.579 134.431 127.597 134.939C127.743 138.923 113.989 129.912 113.533 129.648H113.536Z" fill="#CBCBCB"/>
<path d="M65.1644 61.6644C62.7047 51.6472 52.8658 47.2977 43.3637 49.6449C33.1911 52.1529 27.8822 61.872 30.6172 71.7811C33.3931 81.8392 43.4867 86.4635 53.1469 83.6077C62.5875 80.3397 67.5538 71.3923 65.1673 61.6644H65.1644ZM52.6667 81.8714C43.6448 84.5372 35.2438 80.3076 32.3536 71.3017C29.4137 62.138 35.03 53.9564 43.841 51.3783C52.6228 48.8089 60.9184 53.477 63.425 62.1438C65.9199 70.7697 60.9009 79.0214 52.6638 81.8714H52.6667Z" fill="#CBCBCB"/>
</g>
<defs>
<clipPath id="clip0_162_4637">
<rect width="131" height="173" fill="white"/>
</clipPath>
</defs>
</svg>
