<svg width="131" height="132" viewBox="0 0 131 132" fill="none" xmlns="http://www.w3.org/2000/svg">
<path d="M90.7695 78.4828C97.0958 66.5769 94.3272 50.0533 82.7201 42.4466C67.8866 32.7247 49.3151 36.8222 40.6027 52.4068C31.847 68.0697 38.6394 85.9289 54.8978 92.5171C69.89 97.9301 83.2815 92.575 90.7695 78.4828ZM55.9012 90.5214C40.8451 84.4198 35.3918 69.6282 41.8648 54.8886C48.6665 39.4018 66.5915 35.5325 80.4985 43.647C91.4967 50.0635 94.3901 64.6676 89.5633 75.8417C83.4858 89.9159 70.1127 95.6505 55.9012 90.5214Z" fill="#CBCBCB"/>
<path d="M30.9819 56.11C37.5674 55.2743 36.619 50.8625 32.9641 46.5988C29.6387 42.7213 24.4357 38.8685 19.0662 39.3546C14.9522 39.7287 11.3399 44.9548 13.3448 48.8259C16.4586 54.8352 24.9024 56.4116 30.9815 56.1117L30.9819 56.11ZM18.8187 41.6662C21.948 40.6139 25.797 43.259 28.1027 45.0328C30.4532 46.8414 37.0239 53.0916 30.823 53.8801C26.7079 54.0836 22.5457 53.3388 18.9189 51.3399C14.7954 49.0695 13.4838 43.4592 18.819 41.6644L18.8187 41.6662Z" fill="#CBCBCB"/>
<path d="M117.379 82.2786C114.822 76.1733 106.398 74.9971 100.662 75.2469C98.8416 75.4016 96.148 75.68 95.5143 77.7866C94.7544 80.3218 96.7342 83.2452 98.1286 85.1757C101.469 89.7932 107.76 93.8877 113.609 91.864C117.577 90.4904 118.9 85.9084 117.379 82.2786ZM114.408 88.7904C111.524 91.8472 106.252 89.4733 103.57 87.5189C101.52 86.0238 99.8835 84.0079 98.6103 81.8313C98.1078 80.9697 97.4926 79.6542 97.5838 78.615C97.68 77.5324 100.193 77.5309 100.819 77.4765C105.384 77.2777 110.572 77.9498 114.013 81.2393C116.155 83.2859 116.456 86.62 114.406 88.7918L114.408 88.7904Z" fill="#CBCBCB"/>
<path d="M81.3798 35.438C86.6029 32.8356 91.5324 25.6894 92.1397 19.8479C92.6552 14.9009 87.5633 11.7685 83.0157 13.0911C77.0707 14.8196 75.6727 22.0457 75.6023 27.4205C75.6426 30.5766 76.3107 37.9638 81.3798 35.438ZM81.6462 16.197C83.3734 14.7329 85.886 14.9166 87.8566 15.703C89.9232 16.5271 90.1112 18.7128 89.7848 20.6235C89.1338 24.436 86.4012 27.8602 83.8745 30.6237C83.042 31.5332 80.0114 34.9219 78.7126 33.0679C77.6711 31.582 77.8512 28.9792 77.8288 27.2599C77.8771 23.4473 78.5657 18.8091 81.6462 16.197Z" fill="#CBCBCB"/>
<path d="M52.3448 96.3829C49.6343 95.6357 46.3253 99.1225 44.6077 100.742C41.041 104.103 36.8472 110.167 39.777 115.191C41.7582 118.589 46.0187 119.804 49.5365 118.103C55.4746 115.234 55.1648 106.498 55.0407 100.987C54.9291 98.9642 54.505 96.9795 52.3448 96.3829ZM50.1803 114.863C48.4285 116.941 45.2577 117.192 43.0938 115.662C40.2427 113.647 40.9545 109.864 42.299 107.188C43.3731 105.051 45.2106 103.229 46.9299 101.61C47.9388 100.66 49.0593 99.8726 50.2313 99.142C52.305 97.8491 52.7229 99.4677 52.8146 101.145C52.9147 105.575 53.224 111.251 50.1803 114.863Z" fill="#CBCBCB"/>
<path d="M83.1313 97.095C78.3905 93.3438 75.6996 96.0875 75.0728 101.527C74.4716 106.755 75.371 113.253 79.3132 117.06C82.5722 120.205 89.5347 118.963 90.6097 114.241C92.0697 107.833 87.6537 101.162 83.1309 97.0968L83.1313 97.095ZM87.6002 115.231C86.0013 117.265 82.5231 116.742 80.7958 115.385C78.1285 113.293 77.5029 108.968 77.2329 105.842C76.9718 102.819 77.0302 95.109 81.6477 98.7651C84.959 101.742 87.6735 105.697 88.5231 110.132C88.8623 111.903 88.7439 113.772 87.5984 115.23L87.6002 115.231Z" fill="#CBCBCB"/>
<path d="M47.3802 34.1856C48.8796 35.4519 50.518 36.7256 52.5647 36.1699C54.4313 35.6633 55.1568 32.9768 55.6759 31.425C57.5905 25.6929 56.2769 17.5768 51.1503 13.9337C47.2377 11.1536 42.2885 13.1996 40.5431 17.3822C37.9973 23.479 43.1834 30.3209 47.3798 34.1874L47.3802 34.1856ZM48.4263 15.067C52.9518 16.0752 54.1015 22.3845 54.1665 26.166C54.2027 28.214 53.7853 30.2657 53.0625 32.1712C52.0846 34.7517 50.6274 34.0049 48.8606 32.513C45.6556 29.5595 42.7643 25.8039 42.2137 21.3531C41.753 17.6185 44.5891 14.2131 48.4245 15.0667L48.4263 15.067Z" fill="#CBCBCB"/>
<path d="M34.5259 76.9663C32.8527 75.4782 30.4172 75.4451 28.2971 75.4158C24.4861 75.3653 20.5593 76.1249 17.0825 77.6856C11.4794 80.2009 10.5956 85.3169 14.7265 89.7239C19.5534 94.8756 27.573 89.4358 31.3258 85.7914C33.0434 84.0329 37.4409 79.5581 34.5263 76.9645L34.5259 76.9663ZM29.6571 84.3079C26.595 87.2811 21.7447 90.895 17.3026 88.8591C14.6046 87.6236 13.2524 84.0294 15.1536 81.6853C16.5694 79.9386 19.1085 79.1757 21.1689 78.569C24.3861 77.6231 29.5477 76.7713 32.7028 78.3556C34.7171 79.3674 30.3709 83.5765 29.6571 84.3079Z" fill="#CBCBCB"/>
<path d="M96.2216 53.0356C97.3973 55.302 100.721 55.5423 102.934 55.7531C108.346 56.2698 115.554 55.4901 118.268 50.0158C120.216 46.0848 117.617 41.4321 113.742 40.0725C107.554 37.9024 101.598 44.3102 97.8114 48.2812C96.7047 49.5081 95.3295 51.311 96.2216 53.0356ZM110.398 41.9764C113.619 41.3887 116.409 43.8424 116.658 46.9885C116.998 51.3083 111.718 53.029 108.386 53.4593C106.162 53.7481 103.883 53.6595 101.668 53.3667C100.585 53.2244 99.0154 53.0236 98.2583 52.1408C97.7219 51.5132 99.1714 50.1066 99.4783 49.7643C102.449 46.6487 105.96 42.7858 110.398 41.9746L110.398 41.9764Z" fill="#CBCBCB"/>
<path d="M56.3347 55.9916C56.3614 56.0154 56.3735 56.0475 56.4026 56.0681C56.6742 56.2724 57.0333 56.2886 57.3107 56.1589C57.9272 55.9876 58.4279 55.3322 58.6392 54.7837C58.9669 53.9306 59.0183 52.8687 58.6913 52.0071C58.4387 51.3381 57.7148 51.1397 57.1153 51.4754C56.1204 52.0321 55.4537 53.9618 55.8613 55.234C55.9306 55.5534 56.0827 55.819 56.3344 55.9934L56.3347 55.9916Z" fill="#CBCBCB"/>
<path d="M74.2468 59.5717C74.2735 59.5955 74.2856 59.6276 74.3147 59.6482C74.5863 59.8525 74.9454 59.8687 75.2228 59.7389C75.8393 59.5677 76.34 58.9123 76.5513 58.3637C76.879 57.5107 76.9304 56.4488 76.6034 55.5871C76.3508 54.9181 75.6269 54.7198 75.0274 55.0555C74.0325 55.6122 73.3658 57.5419 73.7734 58.8141C73.8427 59.1335 73.9948 59.3991 74.2465 59.5735L74.2468 59.5717Z" fill="#CBCBCB"/>
<path d="M84.9215 66.0735C83.4148 69.126 79.6829 69.7061 76.6028 70.1238C73.1443 70.5937 69.5676 70.3419 66.1299 69.8289C61.9976 69.2123 57.9841 67.8898 54.2079 66.1203C50.7882 64.5184 46.6068 62.0197 45.1277 58.3297C45.0602 58.1588 44.7893 58.201 44.806 58.395C45.1352 62.2886 48.1774 64.7614 51.2557 66.7488C55.501 69.4917 60.7468 71.1512 65.7061 71.9497C71.2406 72.8392 83.972 74.0985 85.2624 66.1897C85.2951 65.9889 85.0132 65.8825 84.92 66.0713L84.9215 66.0735Z" fill="#CBCBCB"/>
<path d="M29.9724 62.5859C27.7828 61.452 24.3634 60.5519 22.0813 61.9255C19.8877 63.2444 19.3623 66.382 21.2797 68.1652C23.6305 70.3517 28.1489 69.3973 30.665 68.1946C30.7222 68.1672 30.7713 68.1344 30.8225 68.1002C30.8552 68.0845 30.8879 68.0873 30.9214 68.0681C31.9607 67.4832 33.0542 66.6184 32.7832 65.2828C32.5097 63.9411 31.0951 63.1658 29.976 62.5866L29.9724 62.5859ZM24.3184 67.0855C22.7093 66.8398 21.3955 65.2087 23.0512 63.9452C24.1218 63.1296 25.913 63.556 27.0809 63.8543C27.8549 64.0516 28.5851 64.3845 29.2922 64.7499C29.7597 64.9915 30.2371 65.2851 30.5833 65.6894C30.5546 65.6578 29.9646 66.0287 29.757 66.1613C28.0652 66.9398 26.1754 67.3677 24.3188 67.0837L24.3184 67.0855Z" fill="#CBCBCB"/>
<path d="M100.446 63.2651C100.397 63.2868 100.358 63.3161 100.316 63.3428C100.274 63.3585 100.233 63.3706 100.191 63.392C98.9192 64.0507 97.9633 64.93 98.2965 66.454C98.6049 67.8526 100.503 68.9265 101.647 69.5199C104.167 70.8253 107.749 71.1523 109.856 68.9235C111.415 67.2758 110.91 64.7434 109.352 63.3264C106.983 61.1734 103.024 62.0656 100.446 63.2669L100.446 63.2651ZM108.475 66.9844C107.897 68.4209 105.842 68.4176 104.601 68.1974C103.536 68.0084 102.479 67.5214 101.591 66.905C101.193 66.6293 100.811 66.2844 100.512 65.9042C100.495 65.8711 100.484 65.8522 100.47 65.8291C100.629 65.6442 100.903 65.5027 101.154 65.3843C101.16 65.3818 101.166 65.3811 101.173 65.379C102.912 64.5709 105.174 63.8323 107.067 64.5365C108.038 64.8971 108.909 65.9045 108.474 66.9862L108.475 66.9844Z" fill="#CBCBCB"/>
<path d="M67.3684 32.6193C68.5757 31.6384 69.083 29.8954 69.5124 28.4682C69.9596 26.9798 70.1495 25.327 69.9066 23.7859C69.4133 20.6485 66.5357 19.8863 63.9304 21.2027C60.9674 22.6994 61.7686 27.1539 62.7249 29.5839C63.4481 31.284 65.1306 34.4369 67.3684 32.6193ZM64.6048 23.5356C65.0742 22.8887 66.2408 22.5366 66.9867 22.8376C67.6145 23.0908 67.7061 24.0387 67.7636 24.6021C67.9541 26.4883 67.2956 28.553 66.458 30.2096C66.1432 30.8319 66.1482 31.0014 65.8385 30.7006C65.3618 30.2368 65.0882 29.4507 64.8341 28.8536C64.2307 27.3219 63.5236 25.0232 64.6051 23.5338L64.6048 23.5356Z" fill="#CBCBCB"/>
<path d="M64.7754 98.856C63.2284 99.2153 62.3601 101.164 61.7821 102.474C60.6987 104.926 60.0975 108.295 62.3726 110.278C64.0053 111.7 66.3954 111.322 67.885 109.927C70.3789 107.587 68.6073 103.344 67.4996 100.812C66.9796 99.7132 66.1688 98.5345 64.7768 98.8581L64.7754 98.856ZM66.7249 107.666C66.3472 108.677 65.3391 109.115 64.3283 108.863C63.0957 108.555 62.9464 106.861 63.0714 105.856C63.2049 104.79 63.6236 103.768 64.0799 102.808C64.3008 102.341 64.564 101.893 64.8641 101.474C64.9463 101.359 65.0537 101.265 65.1543 101.169C65.1785 101.233 65.2812 101.32 65.3854 101.539C66.1356 103.252 67.4353 105.758 66.7232 107.666L66.7249 107.666Z" fill="#CBCBCB"/>
<path d="M92.0188 43.3996C94.7026 42.7637 97.6649 41.1965 98.9052 38.6074C100.132 36.0471 98.0988 33.1055 95.3978 33.0324C92.1819 32.9452 89.5234 37.0527 88.5992 39.6143C88.5822 39.6627 88.5886 39.7048 88.579 39.7528C88.5558 39.8038 88.5188 39.8408 88.5018 39.8985C87.7084 42.601 89.3308 44.0383 92.0188 43.3996ZM93.7542 36.0483C94.3961 35.5562 95.4614 34.9339 96.2581 35.4802C96.9165 35.9321 97.1726 36.8796 96.9129 37.6055C96.4245 38.9671 94.8354 39.8977 93.6129 40.4922C92.9885 40.7952 92.3276 41.0131 91.6634 41.2008C91.6808 41.1968 90.4619 41.394 90.4673 41.4228C90.4257 41.159 90.531 40.8356 90.6217 40.5574C91.2592 38.82 92.2753 37.1861 93.756 36.0487L93.7542 36.0483Z" fill="#CBCBCB"/>
<path d="M42.135 88.7813C41.2001 88.0019 39.9247 88.0563 38.782 88.2057C35.72 88.6067 32.4927 90.6302 31.744 93.7749C31.1747 96.1611 33.1678 98.4076 35.5304 98.4353C38.9585 98.4779 41.2606 95.0898 42.3413 92.217C42.3612 92.1635 42.3545 92.114 42.3669 92.061C42.389 92.0154 42.421 91.9847 42.4384 91.9345C42.7554 90.9683 43.0575 89.549 42.1368 88.7817L42.135 88.7813ZM37.096 95.7723C36.0025 96.4982 34.1626 96.3435 33.9116 94.8248C33.5856 92.8486 36.0192 91.4201 37.5207 90.8258C38.3457 90.4999 39.2022 90.3674 40.0822 90.3488C40.2734 90.3445 40.4818 90.4583 40.5372 90.4212C40.5553 90.6267 40.4625 90.9248 40.3654 91.1795C40.359 91.193 40.3504 91.1987 40.344 91.2123C39.6763 92.9899 38.7075 94.7018 37.0946 95.7702L37.096 95.7723Z" fill="#CBCBCB"/>
<path d="M92.8333 89.6434C91.1058 88.9352 87.8339 87.8887 87.3957 90.6826C87.1522 92.2339 88.1002 93.9289 88.7943 95.238C89.5364 96.64 90.5928 97.9863 91.9007 98.8977C94.457 100.675 96.9362 99.1485 97.8487 96.442C98.9074 93.2999 95.2131 90.6949 92.835 89.6438L92.8333 89.6434ZM94.6959 97.3526C94.1084 97.7852 93.2873 97.1767 92.8418 96.8247C91.3921 95.6794 90.4489 93.8316 89.8267 92.1351C89.6984 91.7872 89.627 91.4415 89.5951 91.074C89.5936 91.0533 89.5872 91.0391 89.5826 91.0252C89.6235 91.0334 89.68 91.0373 89.7696 91.033C90.4445 91.0049 91.2248 91.3923 91.8299 91.6391C93.3497 92.3133 95.0383 93.2804 95.6535 94.92C95.9854 95.8029 95.3975 96.8391 94.6959 97.3526Z" fill="#CBCBCB"/>
<path d="M39.4847 42.3207C40.4755 42.6816 41.6264 42.982 42.4937 42.1757C43.5431 41.1984 43.1193 39.5267 42.8034 38.3228C42.0975 35.6207 40.1544 32.0694 36.9744 31.9783C34.5386 31.91 32.8153 33.9656 32.8265 36.3048C32.8433 39.6156 36.9605 41.3162 39.4829 42.3203L39.4847 42.3207ZM36.1114 34.3632C37.6262 33.6382 38.9467 35.3002 39.6181 36.427C40.1029 37.2387 40.4213 38.1523 40.6942 39.0531C40.8278 39.4947 40.8942 39.9394 40.93 40.3984C40.9264 40.4162 40.925 40.4233 40.9222 40.4376C40.7746 40.4081 40.6289 40.379 40.4881 40.3249C38.7158 39.6189 36.6204 38.8556 35.4428 37.2647C34.7443 36.3196 35.0283 34.8801 36.1114 34.3632Z" fill="#CBCBCB"/>
</svg>
